<?xml version="1.0" encoding="UTF-8" standalone="no"?>
<!-- Generator: Adobe Illustrator 19.0.0, SVG Export Plug-In . SVG Version: 6.00 Build 0)  -->
<svg id="Layer_1" style="enable-background:new 0 0 360.3 109.5" xmlns="http://www.w3.org/2000/svg" xml:space="preserve" viewBox="0 0 360.3 109.5" version="1.1" y="0px" x="0px" xmlns:xlink="http://www.w3.org/1999/xlink">
<style type="text/css">
	.st0{fill-rule:evenodd;clip-rule:evenodd;fill:#231F20;}
	.st1{fill:#231F20;}
</style>
	<path class="st0" d="m96.3 26.5c7.3 0 13.2-5.9 13.2-13.2s-6-13.2-13.2-13.2-13.3 5.8-13.3 13.1c0 7.3 6 13.3 13.3 13.3"/>
	<path class="st0" d="m13.2 109.5c7.3 0 13.2-6 13.2-13.2 0.1-7.3-5.9-13.3-13.2-13.3-7.2 0-13.2 6-13.2 13.3s6 13.2 13.2 13.2"/>
	<path class="st0" d="m75.5 59.1c9 0 16.3 7.3 16.3 16.3s-7.3 16.3-16.3 16.3c-9 0-16.3-7.3-16.3-16.3s7.3-16.3 16.3-16.3m-48.7-52.1c-6.4-3-5.8-7-14.3-7-6.3 0.4-11.3 5.1-12.3 11.1-1 9.3 4.1 9.3 6.9 15.8 1 2.1 1.6 4.5 1.6 7.1 0 2.4-0.5 4.7-1.4 6.8-2.3 5.4-6.3 5.6-7.2 12.5-0.1 0.5-0.1 1-0.1 1.5 0 7.1 5.7 13 12.7 13.2 8.3 0.1 8.5-4.9 14.8-7.3h0.1c2-0.8 4.1-1.3 6.4-1.3 3.9 0 7.5 1.3 10.3 3.5 0.7 0.7 1.5 1.4 2.2 2.2 2.2 2.8 3.6 6.4 3.6 10.3 0 2-0.4 3.9-1 5.7v0.1c-0.1 0.3-0.2 0.6-0.4 1l-0.1 0.2-0.1 0.2-0.1 0.2-0.1 0.2h0.1c-2.9 5.8-7.2 6-6.8 14.9 0.4 3.3 2 6.2 4.4 8.3 9.4 7.2 14.5 0.7 19.7-2.3 3.5-2.2 7.4-3.4 11.5-3 7 0.6 8.1 3.8 13 6.8 2.5 1.4 5.6 2.2 10.3 1.1 5.2-1.7 8.9-6.6 9-12.3-0.5-8.6-5.4-9.1-7.3-14.5-0.9-2-1.3-4.2-1.3-6.5 0-2.5 0.6-4.9 1.6-7.1l0.1-0.1c2.1-4.6 4.9-5.4 6.2-9v-0.1l0.1-0.2c0.4-1.3 0.7-2.9 0.7-5.1-0.4-7-6.2-12.5-13.2-12.5h-1.2c-7.7 0.8-7.6 6.4-15.5 8.1-1.3 0.3-2.7 0.5-4.1 0.5-3.9 0-7.6-1.4-10.4-3.6-0.8-0.7-1.6-1.4-2.2-2.2-2.2-2.8-3.5-6.4-3.5-10.2 0-2.6 0.6-5 1.6-7.1 2.3-5.2 5.7-5.3 6.9-11.6 0.1-0.7 0.2-1.3 0.2-2-0.2-7.4-6.1-13.3-13.4-13.3h-0.4c-7.3 0.5-7.5 3.9-12.4 6.6l-0.2 0.1c-2.3 1.2-5 1.9-7.8 1.9-2.6 0-5-0.6-7.2-1.6zm17.6 14.5c3.6 3 5.8 7.5 5.8 12.5 0 5.1-2.3 9.6-5.9 12.5-2.8 2.3-6.4 3.7-10.3 3.7-4 0-7.6-1.4-10.4-3.8-3.6-3-5.8-7.5-5.8-12.5s2.3-9.6 5.9-12.5c2.8-2.3 6.4-3.7 10.3-3.7 4 0 7.6 1.5 10.4 3.8z"/>
	<path class="st1" d="m155.4 49.9c0.4 2.4 1.3 4.2 2.6 5.3s3 1.7 5 1.7c2.3 0 4.2-0.7 5.8-2.1s2.9-3.6 3.8-6.6c0.7-2.2 1.1-5 1.4-8.4-0.7 1.2-1.4 2-2 2.6-1 0.9-2.2 1.7-3.7 2.2-1.5 0.6-3.1 0.8-5.1 0.8-2.7 0-5.2-0.6-7.4-1.8s-3.9-2.9-5.1-5.1c-1.1-2.2-1.7-4.7-1.7-7.4 0-2.5 0.5-5 1.6-7.5s2.7-4.4 5-5.8c2.2-1.4 5-2.1 8.2-2.1 4.7 0 8.3 1.5 11 4.4 3.3 3.6 4.9 9.2 4.9 16.8 0 5.2-0.7 9.8-2 13.6-1.3 3.9-3.2 6.8-5.7 8.7s-5.6 2.8-9.1 2.8c-2.3 0-4.4-0.5-6.3-1.4-1.4-0.7-2.6-1.5-3.6-2.6s-1.7-2.2-2.2-3.5-0.8-2.8-1-4.5h5.6zm-0.6-19.3c0 3 0.8 5.4 2.5 7.1s3.9 2.6 6.7 2.6 5.1-0.9 6.7-2.6c1.7-1.7 2.5-4.1 2.5-7.1s-0.9-5.5-2.6-7.3c-1.8-1.8-4-2.8-6.6-2.8s-4.8 0.9-6.5 2.8c-1.8 1.9-2.7 4.3-2.7 7.3"/>
	<path class="st1" d="m187 60.9v-46.3h19.8c2.9 0 5.4 0.5 7.4 1.4s3.6 2.3 4.6 4.2c1.1 1.9 1.6 3.8 1.6 5.9s-0.5 4.1-1.5 5.8c-1 1.8-2.6 3.1-4.6 4 2.4 0.9 4.3 2.1 5.6 3.5 1.9 2.1 2.8 4.7 2.8 7.8 0 1.9-0.3 3.6-1 5.2-0.6 1.6-1.4 3-2.3 4s-1.9 1.8-2.9 2.4-2.4 1.1-4 1.5-3.7 0.6-6.3 0.6h-19.2zm6.2-26.6h11.6c2.2 0 3.9-0.2 5.2-0.6 0.9-0.3 1.6-0.7 2.2-1.1 0.6-0.5 1-1.2 1.5-2.2 0.4-1 0.6-2.1 0.6-3.4 0-1.6-0.4-2.9-1.1-4s-1.7-1.8-2.9-2.3c-1.3-0.4-3.1-0.7-5.4-0.7h-11.6v14.3zm0 21.1h12.3c4.1 0 7-0.7 8.6-2.1s2.3-3.4 2.3-6.2c0-2.6-0.9-4.6-2.6-5.9s-4.5-2-8.3-2h-12.3v16.2z"/>
	<path class="st1" d="m229.5 60.9v-33.8h5.7v5.6c1-2.2 2.3-3.9 3.9-5s3.2-1.6 4.9-1.6c0.5 0 1.1 0.1 1.9 0.2v6c-1-0.1-1.7-0.2-2.1-0.2-1.7 0-3.3 0.5-4.7 1.4s-2.5 2.1-3.2 3.6c-0.5 1-0.7 2.5-0.7 4.4v19.4h-5.7z"/>
	<path class="st1" d="m248.2 37.2c0.1-1.9 0.4-3.5 1-4.8 0.5-1.3 1.3-2.4 2.3-3.3s2.4-1.7 4.2-2.3c1.7-0.6 3.8-0.9 6.2-0.9 2.3 0 4.3 0.2 6 0.7s3.1 1.2 4.1 2c1 0.9 1.7 1.9 2.2 3s0.7 2.4 0.7 3.8v18.8c0 1 0.2 1.7 0.5 2 0.3 0.4 0.8 0.5 1.4 0.5 0.4 0 1.1-0.1 1.9-0.3v4.1c-1.3 0.3-2.4 0.4-3.3 0.4-2 0-3.4-0.4-4.3-1.2s-1.4-2-1.6-3.7c-1.7 1.8-3.5 3.2-5.4 4.1s-4.1 1.4-6.6 1.4c-3.3 0-5.9-0.9-7.8-2.8-1.9-1.8-2.9-4.2-2.9-7.1 0-1.7 0.3-3.2 0.9-4.5s1.5-2.5 2.6-3.4c0.7-0.6 1.6-1.1 2.8-1.6s2.4-0.8 3.8-0.9l9.1-1.1c1.2-0.1 2-0.5 2.5-1.1s0.8-1.5 0.8-2.8c0-1.9-0.6-3.3-1.8-4.3s-3.1-1.5-5.9-1.5c-2.6 0-4.5 0.5-5.7 1.6s-2 2.7-2.2 4.9h-5.5zm20.9 6.5c-0.6 0.4-1.2 0.7-1.9 0.9-1 0.3-2.8 0.6-5.5 1-2 0.3-3.3 0.5-4 0.7-1.3 0.3-2.3 0.7-3 1.2-0.8 0.5-1.3 1.1-1.7 1.7-0.4 0.7-0.5 1.4-0.5 2.4 0 1.7 0.5 3.1 1.7 4.1 1.1 1.1 2.7 1.6 4.7 1.6 2.6 0 4.9-0.8 7-2.3s3.2-3.5 3.2-5.9v-5.4z"/>
	<path class="st1" d="m284.2 14.6h5.7v6.6h-5.7v-6.6zm0 12.5h5.7v33.7h-5.7v-33.7z"/>
	<path class="st1" d="m298.4 27.1h5.4v4.8c0.8-1.2 1.6-2 2.3-2.6 1.2-1 2.5-1.8 3.9-2.3s3-0.8 4.8-0.8c2.1 0 3.9 0.4 5.5 1.2 1.5 0.8 2.7 1.7 3.5 2.8s1.4 2.3 1.6 3.6c0.3 1.3 0.4 3.1 0.4 5.5v21.6h-5.7v-21.3c0-2.3-0.2-3.9-0.6-4.9s-1.2-1.9-2.3-2.5-2.4-0.9-3.8-0.9c-1.5 0-3 0.3-4.3 1-1.3 0.6-2.3 1.5-3.1 2.6-0.7 1.1-1.3 2.4-1.6 3.7-0.2 0.9-0.3 2.2-0.3 3.8v18.5h-5.7v-33.8z"/>
	<polygon points="332.1 60.9 332.1 56.4 352.1 32.2 333.6 32.2 333.6 27.1 359.7 27.1 359.7 31.8 339.8 55.8 360.3 55.8 360.3 60.9" class="st1"/>
	<path d="m150.1 80.3v-1.9h13.5v1.9h-5.6v15h-2.3v-15h-5.6z"/>
	<path d="m167.2 78.4v6.5c0.2-0.4 0.4-0.7 0.7-1s0.6-0.5 1-0.6 0.7-0.3 1.1-0.4 0.8-0.1 1.1-0.1c0.8 0 1.5 0.1 2 0.3s1 0.5 1.3 0.9 0.6 0.9 0.7 1.4 0.2 1.1 0.2 1.8v8.1h-2v-8.3c0-0.8-0.2-1.4-0.7-1.8-0.4-0.4-1.1-0.7-1.8-0.7-0.6 0-1.1 0.1-1.6 0.3s-0.8 0.5-1.1 0.8c-0.3 0.3-0.5 0.8-0.7 1.2-0.2 0.5-0.2 1-0.2 1.5v6.9h-2v-16.8h2z"/>
	<path d="m187 94.5c-0.9 0.7-2.1 1-3.5 1-1 0-1.8-0.2-2.5-0.5s-1.3-0.8-1.8-1.3c-0.5-0.6-0.9-1.2-1.1-2s-0.4-1.7-0.4-2.6 0.1-1.8 0.4-2.6 0.7-1.4 1.2-2 1.1-1 1.8-1.3 1.5-0.5 2.3-0.5c1.1 0 2 0.2 2.7 0.7s1.3 1 1.7 1.7 0.7 1.5 0.9 2.3 0.2 1.6 0.2 2.3h-9.2c0 0.5 0 1 0.2 1.5 0.1 0.5 0.4 0.9 0.7 1.3s0.7 0.7 1.2 0.9 1.1 0.3 1.7 0.3c0.9 0 1.6-0.2 2.1-0.6s0.9-1 1.1-1.8h2c-0.2 1.5-0.8 2.5-1.7 3.2zm-0.5-7.9c-0.2-0.4-0.4-0.8-0.7-1.1s-0.7-0.6-1.1-0.7c-0.4-0.2-0.9-0.3-1.4-0.3s-1 0.1-1.4 0.3-0.8 0.4-1.1 0.7-0.5 0.7-0.7 1.1-0.3 0.9-0.3 1.3h7c0-0.4-0.1-0.8-0.3-1.3z"/>
	<path d="m206.3 92.7c-0.2 0.6-0.4 1-0.8 1.5-0.4 0.4-0.9 0.8-1.5 1-0.6 0.3-1.4 0.4-2.4 0.4-1.6 0-2.8-0.4-3.7-1.2s-1.3-2-1.3-3.7v-1h2.3v0.7c0 0.5 0 0.9 0.1 1.4 0.1 0.4 0.2 0.8 0.4 1.1s0.5 0.5 0.8 0.7 0.8 0.2 1.4 0.2c1 0 1.7-0.3 2.1-0.8s0.6-1.3 0.6-2.2v-12.4h2.3v12.7c0 0.5-0.1 1.1-0.3 1.6z"/>
	<path d="m209.7 86.6c0.3-0.8 0.6-1.5 1.1-2 0.5-0.6 1.1-1 1.9-1.4 0.7-0.3 1.6-0.5 2.6-0.5s1.8 0.2 2.6 0.5c0.7 0.3 1.4 0.8 1.9 1.4s0.9 1.3 1.1 2 0.4 1.6 0.4 2.5c0 0.9-0.1 1.7-0.4 2.5s-0.6 1.5-1.1 2c-0.5 0.6-1.1 1-1.9 1.4-0.7 0.3-1.6 0.5-2.6 0.5s-1.8-0.2-2.6-0.5c-0.7-0.3-1.4-0.8-1.9-1.4s-0.9-1.3-1.1-2c-0.3-0.8-0.4-1.6-0.4-2.5 0-0.8 0.1-1.7 0.4-2.5zm2 4.5c0.2 0.6 0.5 1.1 0.8 1.4 0.3 0.4 0.8 0.7 1.2 0.9 0.5 0.2 1 0.3 1.5 0.3s1-0.1 1.5-0.3c0.5-0.2 0.9-0.5 1.2-0.9s0.6-0.9 0.8-1.4c0.2-0.6 0.3-1.2 0.3-2 0-0.7-0.1-1.4-0.3-2s-0.5-1.1-0.8-1.5-0.8-0.7-1.2-0.9c-0.5-0.2-1-0.3-1.5-0.3s-1 0.1-1.5 0.3c-0.5 0.2-0.9 0.5-1.2 0.9s-0.6 0.9-0.8 1.5-0.3 1.2-0.3 2 0.1 1.5 0.3 2z"/>
	<path d="m227.7 98.4c-0.2 0.4-0.5 0.7-0.8 1s-0.6 0.5-0.9 0.6c-0.3 0.1-0.7 0.2-1.2 0.2h-0.7c-0.2 0-0.5-0.1-0.7-0.2v-1.8c0.2 0.1 0.4 0.1 0.6 0.2s0.4 0.1 0.6 0.1c0.4 0 0.7-0.1 1-0.3s0.5-0.5 0.7-0.8l0.8-2.1-4.9-12.3h2.3l3.6 10 3.4-10h2.1l-5.3 13.9c-0.2 0.6-0.4 1.1-0.6 1.5z"/>
	<path d="m241.9 83.5c0.3-1.1 0.8-2 1.5-2.8s1.5-1.5 2.5-2 2.2-0.7 3.5-0.7 2.5 0.2 3.5 0.7c1 0.5 1.9 1.1 2.5 2 0.7 0.8 1.2 1.8 1.5 2.8s0.5 2.2 0.5 3.3-0.2 2.3-0.5 3.3-0.8 2-1.5 2.8c-0.7 0.8-1.5 1.5-2.5 2s-2.2 0.7-3.5 0.7-2.5-0.2-3.5-0.7c-1-0.5-1.9-1.1-2.5-2s-1.2-1.8-1.5-2.8-0.5-2.2-0.5-3.3 0.1-2.2 0.5-3.3zm2.1 5.8c0.2 0.8 0.6 1.6 1 2.2 0.5 0.7 1.1 1.2 1.8 1.6s1.6 0.6 2.7 0.6 1.9-0.2 2.7-0.6c0.7-0.4 1.4-0.9 1.8-1.6 0.5-0.7 0.8-1.4 1-2.2s0.3-1.7 0.3-2.5-0.1-1.7-0.3-2.5c-0.2-0.8-0.6-1.6-1-2.2s-1.1-1.2-1.8-1.6c-0.7-0.4-1.6-0.6-2.7-0.6s-1.9 0.2-2.7 0.6c-0.7 0.4-1.4 0.9-1.8 1.6-0.5 0.7-0.8 1.4-1 2.2s-0.3 1.7-0.3 2.5 0 1.7 0.3 2.5z"/>
	<path d="m258.8 84.8v-1.8h2.1v-1.8c0-1 0.3-1.7 0.9-2.3 0.6-0.5 1.4-0.8 2.5-0.8h0.7c0.2 0 0.5 0.1 0.7 0.1v1.8c-0.2-0.1-0.4-0.1-0.6-0.1h-0.6c-0.5 0-0.9 0.1-1.1 0.3s-0.4 0.6-0.4 1.1v1.7h2.4v1.8h-2.4v10.5h-2v-10.5h-2.2z"/>
	<path d="m284.1 95.1c-1 0.4-2 0.6-3 0.6-1.3 0-2.4-0.2-3.4-0.7s-1.8-1.1-2.5-1.9-1.2-1.7-1.6-2.7c-0.4-1-0.5-2.1-0.5-3.2 0-1.2 0.2-2.4 0.5-3.5s0.8-2.1 1.5-2.9c0.7-0.8 1.5-1.5 2.5-2s2.2-0.7 3.5-0.7c0.9 0 1.8 0.1 2.6 0.3s1.5 0.5 2.2 1c0.6 0.5 1.2 1 1.6 1.7s0.7 1.6 0.9 2.5h-2.3c-0.1-0.6-0.3-1.2-0.6-1.7s-0.7-0.8-1.1-1.1-0.9-0.5-1.5-0.7-1.2-0.2-1.8-0.2c-1 0-1.9 0.2-2.6 0.6s-1.3 1-1.8 1.6c-0.5 0.7-0.8 1.4-1 2.3s-0.3 1.7-0.3 2.6 0.1 1.7 0.4 2.5 0.6 1.5 1.1 2.2c0.5 0.6 1.1 1.1 1.8 1.5s1.6 0.6 2.5 0.6 1.7-0.1 2.3-0.4c0.7-0.3 1.3-0.7 1.7-1.2s0.8-1.1 1.1-1.8c0.2-0.7 0.3-1.4 0.3-2.2h-5.4v-1.9h7.4v8.9h-1.4l-0.6-2.1c-0.7 1-1.5 1.6-2.5 2z"/>
	<path d="m293.4 83v2.6c0.5-1 1.1-1.7 1.8-2.2s1.6-0.7 2.7-0.7v2.1c-0.8 0-1.5 0.1-2.1 0.3s-1 0.5-1.4 1c-0.3 0.4-0.6 0.9-0.8 1.6-0.2 0.6-0.2 1.3-0.2 2.1v5.5h-2v-12.3h2z"/>
	<path d="m298.8 86.6c0.3-0.8 0.6-1.5 1.1-2 0.5-0.6 1.1-1 1.9-1.4 0.7-0.3 1.6-0.5 2.6-0.5s1.8 0.2 2.6 0.5c0.7 0.3 1.4 0.8 1.9 1.4s0.9 1.3 1.1 2 0.4 1.6 0.4 2.5c0 0.9-0.1 1.7-0.4 2.5s-0.6 1.5-1.1 2c-0.5 0.6-1.1 1-1.9 1.4-0.7 0.3-1.6 0.5-2.6 0.5s-1.8-0.2-2.6-0.5c-0.7-0.3-1.4-0.8-1.9-1.4s-0.9-1.3-1.1-2c-0.3-0.8-0.4-1.6-0.4-2.5 0-0.8 0.1-1.7 0.4-2.5zm2 4.5c0.2 0.6 0.5 1.1 0.8 1.4 0.3 0.4 0.8 0.7 1.2 0.9 0.5 0.2 1 0.3 1.5 0.3s1-0.1 1.5-0.3c0.5-0.2 0.9-0.5 1.2-0.9s0.6-0.9 0.8-1.4c0.2-0.6 0.3-1.2 0.3-2 0-0.7-0.1-1.4-0.3-2s-0.5-1.1-0.8-1.5-0.8-0.7-1.2-0.9c-0.5-0.2-1-0.3-1.5-0.3s-1 0.1-1.5 0.3c-0.5 0.2-0.9 0.5-1.2 0.9s-0.6 0.9-0.8 1.5-0.3 1.2-0.3 2 0.1 1.5 0.3 2z"/>
	<path d="m322.7 95.3l-2.5-9.7-2.5 9.7h-2.2l-4-12.3h2.2l2.8 10 2.5-10h2.2l2.6 10 2.8-10h2.1l-3.9 12.3h-2.1z"/>
	<path d="m330.7 80.8v-2.5h2v2.5h-2zm2.1 2.2v12.3h-2v-12.3h2z"/>
	<path d="m337.8 83v2c0.8-1.5 2.2-2.2 4-2.2 0.8 0 1.5 0.1 2 0.3s1 0.5 1.3 0.9 0.6 0.9 0.7 1.4 0.2 1.1 0.2 1.8v8.1h-2v-8.3c0-0.8-0.2-1.4-0.7-1.8-0.4-0.4-1.1-0.7-1.8-0.7-0.6 0-1.1 0.1-1.6 0.3s-0.8 0.5-1.1 0.8c-0.3 0.3-0.5 0.8-0.7 1.2-0.2 0.5-0.2 1-0.2 1.5v6.9h-2v-12.2h1.9z"/>
	<path d="m358.3 98.7c-0.9 1-2.4 1.5-4.3 1.5-0.6 0-1.1-0.1-1.7-0.2s-1.1-0.3-1.6-0.6-0.9-0.7-1.2-1.1c-0.3-0.5-0.5-1-0.5-1.7h2c0 0.4 0.1 0.7 0.3 0.9 0.2 0.3 0.5 0.5 0.8 0.6 0.3 0.2 0.6 0.3 1 0.3 0.4 0.1 0.7 0.1 1 0.1 0.7 0 1.2-0.1 1.7-0.3s0.8-0.5 1.1-0.9 0.5-0.9 0.7-1.5c0.1-0.6 0.2-1.2 0.2-1.9v-0.8c-0.3 0.8-0.9 1.3-1.6 1.7s-1.4 0.5-2.2 0.5c-0.9 0-1.7-0.2-2.4-0.5s-1.2-0.8-1.7-1.3c-0.5-0.6-0.8-1.2-1-2s-0.3-1.5-0.3-2.4c0-0.7 0.1-1.5 0.3-2.2s0.5-1.5 0.9-2.1c0.4-0.6 1-1.1 1.8-1.5 0.7-0.4 1.6-0.6 2.7-0.6 0.8 0 1.5 0.2 2.1 0.5s1.2 0.8 1.5 1.5v-1.7h1.9v11.2c-0.2 2-0.6 3.5-1.5 4.5zm-2.6-5.5c0.5-0.3 0.8-0.6 1.1-1.1s0.5-1 0.6-1.5 0.2-1.1 0.2-1.7c0-0.5-0.1-1.1-0.2-1.6s-0.3-1-0.6-1.4-0.6-0.8-1.1-1c-0.4-0.3-1-0.4-1.6-0.4s-1.2 0.1-1.7 0.4-0.8 0.6-1.1 1c-0.3 0.4-0.5 0.9-0.6 1.4s-0.2 1.1-0.2 1.7 0.1 1.1 0.2 1.7 0.3 1.1 0.6 1.5 0.6 0.8 1.1 1.1 1 0.4 1.7 0.4c0.6-0.1 1.1-0.2 1.6-0.5z"/>
</svg>
