<?xml version="1.0" encoding="utf-8"?>
<!-- Generator: Adobe Illustrator 21.0.0, SVG Export Plug-In . SVG Version: 6.00 Build 0)  -->
<svg version="1.1" id="Capa_1" xmlns="http://www.w3.org/2000/svg" xmlns:xlink="http://www.w3.org/1999/xlink" x="0px" y="0px"
	 viewBox="0 0 710.4 282.2" style="enable-background:new 0 0 710.4 282.2;" xml:space="preserve">
<style type="text/css">
	.st0{fill:#FFFFFF;}
</style>
<g id="PSD">
	<g>
		<path class="st0" d="M268.5,88l-52.9-77.5c-1-1.5-2.7-2.4-4.5-2.4H89.3c-7,0-12.7,5.8-12.7,12.8v66.9H14c-7.7,0-14,6.2-14,14v98.5
			c0,7.7,6.2,14,14,14h62.7v55.2c0,7.1,5.7,12.8,12.7,12.8h167.4c7,0,12.7-5.8,12.7-12.8V91C269.4,90,269.1,88.9,268.5,88z
			 M215.8,29.9l38,55.7h-38V29.9z M14,203.4c-1.7,0-3.2-1.5-3.2-3.2v-98.4c0-1.7,1.5-3.2,3.2-3.2h165.5c1.7,0,3.2,1.5,3.2,3.2v98.5
			c0,1.7-1.5,3.2-3.2,3.2L14,203.4L14,203.4z M233.9,271.4H89.3c-1.1,0-1.9-1-1.9-2.1v-55.2h92.1c7.7,0,14-6.2,14-14v-98.4
			c0-7.7-6.2-14-14-14h-92V20.9c0-1.1,0.9-2.1,1.9-2.1h115.8v69.9c0,4.1,3.3,7.5,7.5,7.5h46v173c0,1.1-0.9,2.1-1.9,2.1h-12.2"/>
	</g>
	<g>
		<g>
			<path class="st0" d="M96.4,145.7c-0.2,0-0.6,0-0.8,0.1c-0.2,0-0.5-0.1-0.8-0.1h-5.1c-3.8,0-7-3.1-7-7s3.1-7,7-7h19
				c2.9,0,5.4-2.4,5.4-5.4s-2.4-5.4-5.4-5.4h-19c-9.7,0-17.7,7.9-17.7,17.7c0,9.7,7.9,17.7,17.7,17.7h5.1c0.2,0,0.6,0,0.8-0.1
				c0.2,0,0.5,0.1,0.8,0.1c3.8,0,7,3.1,7,7s-3.1,7-7,7H79.5c-2.9,0-5.4,2.4-5.4,5.4s2.4,5.4,5.4,5.4h16.9c9.7,0,17.7-7.9,17.7-17.7
				C114,153.6,106.1,145.7,96.4,145.7z"/>
		</g>
	</g>
	<g>
		<g>
			<path class="st0" d="M49.5,121.7h-19c-2.9,0-5.4,2.4-5.4,5.4V175c0,2.9,2.4,5.4,5.4,5.4s5.4-2.4,5.4-5.4V157h13.6
				c9.7,0,17.7-7.9,17.7-17.7S59.2,121.7,49.5,121.7z M49.5,146.3H35.9v-14h13.6c3.8,0,7,3.1,7,7S53.4,146.3,49.5,146.3z"/>
		</g>
	</g>
	<g>
		<g>
			<path class="st0" d="M139,121.7h-10.7c-2.9,0-5.4,2.4-5.4,5.4V175c0,2.9,2.4,5.4,5.4,5.4H139c16.1,0,29.3-13.1,29.3-29.3
				C168.3,134.8,155.2,121.7,139,121.7z M139,169.6h-5.4v-37.2h5.4c10.2,0,18.6,8.4,18.6,18.6C157.6,161.3,149.3,169.6,139,169.6z"
				/>
		</g>
	</g>
</g>
<g id="HTML">
	<path class="st0" d="M494.6,121c-2.2,0-4,1.8-4,4v17.4h-21.8V125c0-2.2-1.8-4-4-4s-4,1.8-4,4v34.1c0,2.2,1.8,4,4,4s4-1.8,4-4v-8.8
		h21.8v8.8c0,2.2,1.8,4,4,4s4-1.8,4-4V125C498.5,122.8,496.7,121,494.6,121z"/>
	<path class="st0" d="M545.7,163.1c2.2,0,4-1.8,4-4v-19.7l5.4,8.9c0.7,1.2,2,1.9,3.4,1.9h4.3c1.4,0,2.7-0.7,3.4-1.9l5.4-8.9v19.7
		c0,2.2,1.8,4,4,4c2.2,0,4-1.8,4-4V125c0-1.8-1.2-3.4-2.9-3.8c-1.7-0.5-3.6,0.2-4.5,1.8l-11.5,19.1L549,123
		c-0.9-1.5-2.8-2.3-4.5-1.8s-2.9,2-2.9,3.8v34.1C541.7,161.3,543.5,163.1,545.7,163.1z"/>
	<path class="st0" d="M507.3,129.1h8.8v30.1c0,2.2,1.8,4,4,4c2.2,0,4-1.8,4-4v-30.1h8.8c2.2,0,4-1.8,4-4c0-2.2-1.8-4-4-4h-25.6
		c-2.2,0-4,1.8-4,4C503.2,127.3,505.1,129.1,507.3,129.1z"/>
	<path class="st0" d="M592.6,163.1H614c2.2,0,4-1.8,4-4c0-2.2-1.8-4-4-4h-17.4V125c0-2.2-1.8-4-4-4c-2.2,0-4,1.8-4,4v34.1
		C588.6,161.3,590.4,163.1,592.6,163.1z"/>
	<g>
		<g>
			<path class="st0" d="M709.5,79.9L656.6,2.4c-1-1.5-2.7-2.4-4.5-2.4H530.3c-7,0-12.7,5.8-12.7,12.8v66.9H455c-7.7,0-14,6.2-14,14
				v98.5c0,7.7,6.2,14,14,14h62.7v55.2c0,7.1,5.7,12.8,12.7,12.8h167.4c7,0,12.7-5.8,12.7-12.8V82.9
				C710.4,81.8,710.1,80.8,709.5,79.9z M656.9,21.7l38,55.7h-38V21.7z M455.1,195.3c-1.7,0-3.2-1.5-3.2-3.2V93.7
				c0-1.7,1.5-3.2,3.2-3.2h165.5c1.7,0,3.2,1.5,3.2,3.2v98.5c0,1.7-1.5,3.2-3.2,3.2L455.1,195.3L455.1,195.3z M674.9,263.3H530.3
				c-1.1,0-1.9-1-1.9-2.1V206h92.1c7.7,0,14-6.2,14-14V93.7c0-7.7-6.2-14-14-14h-92V12.8c0-1.1,0.9-2.1,1.9-2.1h115.8v69.9
				c0,4.1,3.3,7.5,7.5,7.5h46v173c0,1.1-0.9,2.1-1.9,2.1h-12.2"/>
		</g>
	</g>
</g>
<g>
	<path class="st0" d="M419.1,140.8l-39.3-39.3c-2.4-2.4-6.3-2.4-8.7,0c-2.4,2.4-2.4,6.3,0,8.7l28.8,28.8H295c-3.4,0-6.1,2.7-6.1,6.1
		c0,3.4,2.7,6.1,6.1,6.1h104.9l-28.8,28.8c-2.4,2.4-2.4,6.3,0,8.7c1.2,1.2,2.8,1.8,4.3,1.8s3.1-0.6,4.3-1.8l39.3-39.3
		C421.5,147.1,421.5,143.2,419.1,140.8z"/>
</g>
</svg>
