<?xml version="1.0" encoding="utf-8"?>
<!-- Generator: Adobe Illustrator 21.0.0, SVG Export Plug-In . SVG Version: 6.00 Build 0)  -->
<svg version="1.1" id="Capa_1" xmlns="http://www.w3.org/2000/svg" xmlns:xlink="http://www.w3.org/1999/xlink" x="0px" y="0px"
	 viewBox="0 0 512 432" style="enable-background:new 0 0 512 432;" xml:space="preserve" fill="#fff" width="120px">
<path d="M144,256H80c-8.8,0-16-7.2-16-16s7.2-16,16-16h48v-96H80c-8.8,0-16-7.2-16-16s7.2-16,16-16h64c8.8,0,16,7.2,16,16v128
	C160,248.8,152.8,256,144,256z"/>
<path d="M256,256h-32c-17.7,0-32-14.3-32-32v-96c0-17.7,14.3-32,32-32h48c8.8,0,16,7.2,16,16s-7.2,16-16,16h-48v32h32
	c17.7,0,32,14.3,32,32v32C288,241.7,273.7,256,256,256z M224,192v32h32v-32H224z"/>
<path d="M384,256h-32c-17.7,0-32-14.3-32-32v-96c0-17.7,14.3-32,32-32h32c17.7,0,32,14.3,32,32v96C416,241.7,401.7,256,384,256z
	 M352,128v96h32v-96H352z"/>
<path d="M144,192H80c-8.8,0-16-7.2-16-16s7.2-16,16-16h64c8.8,0,16,7.2,16,16S152.8,192,144,192z"/>
<path d="M256,384C112.4,384,0,327.8,0,256c1.3-27.4,15.4-52.6,38.1-68c7-5.4,17-4.2,22.5,2.8s4.2,17-2.8,22.5l0,0
	C43.2,222.9,33.8,238.6,32,256c0,45.4,92,96,224,96c8.8,0,16,7.2,16,16S264.8,384,256,384z"/>
<path d="M304,381.8c-8.8,0.4-16.3-6.4-16.8-15.2s6.4-16.3,15.2-16.8c101.2-9.7,177.5-50,177.5-93.8c-1.8-17.4-11.2-33.1-25.9-42.8
	c-7-5.4-8.2-15.5-2.8-22.5s15.5-8.2,22.5-2.8l0,0c22.7,15.4,36.9,40.6,38.1,68c0,62.2-84.9,114-206.5,125.7L304,381.8z"/>
<path d="M208,432c-8.8,0-16-7.1-16-16c0-4.3,1.7-8.3,4.7-11.4l36.7-36.7l-36.7-36.7c-6.3-6.3-6.3-16.4,0-22.7s16.4-6.3,22.7,0l48,48
	c6.3,6.2,6.3,16.4,0,22.6c0,0,0,0,0,0l-48,48C216.3,430.3,212.2,432,208,432z"/>
<path d="M464,96c-26.5,0-48-21.5-48-48s21.5-48,48-48s48,21.5,48,48S490.5,96,464,96z M464,32c-8.8,0-16,7.2-16,16s7.2,16,16,16
	s16-7.2,16-16S472.8,32,464,32z"/>
</svg>
