<?xml version="1.0" encoding="utf-8"?>
<!-- Generator: Adobe Illustrator 21.0.0, SVG Export Plug-In . SVG Version: 6.00 Build 0)  -->
<svg version="1.1" id="Layer_1" xmlns:sketch="http://www.bohemiancoding.com/sketch/ns"
	 xmlns="http://www.w3.org/2000/svg" xmlns:xlink="http://www.w3.org/1999/xlink" x="0px" y="0px" viewBox="0 0 19.9 13"
	 style="enable-background:new 0 0 19.9 13;" xml:space="preserve" >
<title>cardboard</title>
<desc>Created with Sketch.</desc>
<g id="Page-1" sketch:type="MSPage">
	<g id="cardboard" sketch:type="MSArtboardGroup">
		<path id="Imported-Layers" sketch:type="MSShapeGroup" d="M18.6,0H1.2C0.5,0,0,0.6,0,1.3v10.4C0,12.4,0.5,13,1.2,13H6
			c0.5,0,0.9-0.3,1.1-0.8l1.4-3.5c0.2-0.6,0.8-1,1.4-1c0.6,0,1.2,0.4,1.4,1l1.4,3.5c0.2,0.5,0.6,0.8,1.1,0.8h4.8
			c0.7,0,1.3-0.6,1.3-1.3V1.3C19.9,0.6,19.3,0,18.6,0L18.6,0z M5.4,8.8c-1.2,0-2.2-1-2.2-2.3s1-2.3,2.2-2.3c1.2,0,2.2,1,2.2,2.3
			S6.6,8.8,5.4,8.8L5.4,8.8z M14.5,8.8c-1.2,0-2.2-1-2.2-2.3c0-1.3,1-2.3,2.2-2.3s2.2,1,2.2,2.3C16.7,7.8,15.7,8.8,14.5,8.8
			L14.5,8.8z"/>
		<g id="Oval-2-_x2B_-Imported-Layers" transform="translate(18.000000, 20.000000)" sketch:type="MSLayerGroup">
		</g>
	</g>
</g>
</svg>
