<?xml version="1.0" encoding="utf-8"?>
<!-- Generator: Adobe Illustrator 21.0.0, SVG Export Plug-In . SVG Version: 6.00 Build 0)  -->
<svg version="1.1" id="Lockup" xmlns="http://www.w3.org/2000/svg" xmlns:xlink="http://www.w3.org/1999/xlink" x="0px" y="0px"
	 viewBox="0 0 369.9 300" style="enable-background:new 0 0 369.9 300;" xml:space="preserve" >
<style type="text/css">
	.st0{fill:#110F11;}
</style>
<g>
	<path class="st0" d="M110.6,284.8c-3.4,0.8-7,0.7-10.4-0.4c-3.4-1.1-6.3-3.2-8.3-6.1c-2-2.9-3.1-6.3-3.3-9.8
		c-0.2-3.4,0.5-7.1,2.1-10.1c1.7-3.2,4.2-5.5,7.6-6.9c1.4-0.6,2.9-1,4.4-1.3c2-0.3,3.9-0.4,5.9-0.1c3.5,0.4,6.8,1.7,9.7,3.6
		c2.9-3.7,5.9-7.4,8.8-11.2c-5.1-4-10.8-6.3-17.2-7c-6.2-0.7-12.7,0.3-18.4,3c-5.8,2.8-10.4,7.1-13.4,12.8c-3,5.6-4.2,12-3.9,18.2
		c0.3,6.3,2.2,12.5,5.8,17.7c3.7,5.3,8.8,9,14.9,11c5.9,2,12.5,2.4,18.6,1.1c6.2-1.3,11.9-4.3,16.3-8.9c-3.3-3.4-6.7-6.9-10-10.3
		C117.2,282.4,114.1,284,110.6,284.8z"/>
	<path class="st0" d="M31.8,235.5c-8.4,0-16.7,3.1-22.7,9.2c-6,6.1-9.1,14.4-9.1,22.8c0,8.4,3,16.7,9,22.8c6,6.1,14.2,9.3,22.6,9.3
		c8.4,0,16.7-3.1,22.7-9.2c6-6.1,9.1-14.4,9.1-22.8c0-8.4-3-16.7-9-22.8C48.5,238.8,40.3,235.6,31.8,235.5z M48.7,271.4
		c-0.2,1.2-0.6,2.3-1,3.5c-0.4,1.1-0.9,2.1-1.6,3c-0.6,0.9-1.3,1.8-2.1,2.6c-0.8,0.8-1.6,1.5-2.5,2.1c-0.9,0.6-1.9,1.1-3,1.6
		c-1.1,0.4-2.2,0.8-3.4,1c-1.2,0.2-2.4,0.3-3.6,0.3c-1.2,0-2.4-0.1-3.6-0.4c-1.1-0.2-2.3-0.6-3.4-1c-1-0.4-2-1-3-1.6
		c-0.9-0.6-1.7-1.3-2.5-2.1c-0.8-0.8-1.4-1.6-2-2.6c-0.6-1-1.1-2-1.5-3c-0.4-1.1-0.8-2.3-1-3.5c-0.2-1.2-0.3-2.5-0.3-3.7
		c0-1.2,0.1-2.5,0.4-3.7c0.2-1.2,0.6-2.3,1-3.5c0.4-1.1,0.9-2.1,1.6-3c0.6-0.9,1.3-1.8,2.1-2.6c0.8-0.8,1.6-1.5,2.5-2.1
		c0.9-0.6,1.9-1.1,3-1.6c1.1-0.4,2.2-0.8,3.4-1c1.2-0.2,2.4-0.3,3.6-0.3c1.2,0,2.4,0.1,3.6,0.4c1.2,0.2,2.3,0.6,3.4,1
		c1,0.4,2,1,3,1.6c0.9,0.6,1.7,1.3,2.5,2.1c0.8,0.8,1.4,1.6,2,2.6c0.6,1,1.1,2,1.5,3c0.4,1.1,0.8,2.3,1,3.5c0.2,1.2,0.3,2.5,0.3,3.7
		C49.1,268.9,49,270.1,48.7,271.4z"/>
	<path class="st0" d="M183.5,265.9c0,1.7,0,3.4-0.1,5.1c-0.1,1.1-0.2,2.2-0.4,3.2c-0.4,2-1,3.9-2.2,5.7c-2.7,4.2-7.5,6.3-12.3,6.4
		c-4.9,0.1-9.6-2-12.2-6.4c-1.1-1.8-1.7-3.7-2.1-5.7c-0.5-2.7-0.6-5.5-0.7-8.3c0-1.8-0.1-3.6-0.1-5.3c0-3,0-6.1,0-9.1
		c0-4.8,0-9.5,0-14.5c-4.9,0-9.7,0-14.6,0c0,5,0,19.8,0,24.8c0,2.4,0,4.8,0.1,7.2c0.1,1.7,0.1,3.5,0.3,5.2c0.4,4.1,1.1,8.2,3,11.9
		c3.9,7.8,11.4,12.3,19.7,13.2c4.1,0.5,8.3,0.1,12.3-1c3.8-1.1,7.8-3.2,10.7-6.1c0.1,2,0.3,3.8,0.4,5.8c4.3,0,8.6,0,12.6,0
		c0-20,0-41,0-61c-5,0-9.6,0-14.5,0C183.5,241,183.5,262,183.5,265.9z"/>
	<rect x="215" y="204" class="st0" width="15" height="94"/>
	<path class="st0" d="M289.7,144.6c19.1-15.4,30.3-38.5,30.3-63.1c0-24.5-11.1-47.7-30.3-63.1c-9.5-7.6-20.4-12.9-32.2-15.8
		c-6.8-1.6-13.6-2.4-20.5-2.6C231.9,0,226.7,0,221.6,0c-24.4,0-48.8,0-73.2,0c-5.1,0-10.3,0-15.4,0.1c-7,0.2-13.7,1-20.5,2.6
		c-11.8,2.8-22.7,8.1-32.2,15.8C61.1,33.8,50,57,50,81.5c0,24.5,11.1,47.7,30.3,63.1c9.5,7.6,20.4,12.9,32.2,15.8
		c6.8,1.6,13.6,2.3,20.5,2.6c5.1,0.2,10.3,0.1,15.4,0.1c24.4,0,48.8,0,73.2,0c5.1,0,10.3,0.1,15.4-0.1c7-0.2,13.7-0.9,20.5-2.6
		C269.4,157.5,280.2,152.2,289.7,144.6z M242.1,108.3c-4.3,0.7-8.6,0.7-12.9,0.7c-29.5,0-59,0-88.6,0c-4.3,0-8.6,0-12.9-0.7
		c-4.3-0.7-8.3-2.3-11.9-4.8c-7.2-5-11.6-13.2-11.6-22c0-8.8,4.3-17,11.6-21.9c3.6-2.5,7.6-4.2,11.9-4.9c4.3-0.7,8.6-0.7,12.9-0.7
		c29.5,0,59,0,88.6,0c4.3,0,8.6,0,12.9,0.7c4.3,0.7,8.3,2.3,11.9,4.8c7.2,5,11.6,13.2,11.6,22c0,8.8-4.3,17-11.6,22
		C250.4,106,246.4,107.6,242.1,108.3z"/>
	<path class="st0" d="M369,274.2c-2.1-5.9-7.3-9.6-12.7-11.7c-3.1-1.2-6.2-2-9.5-2.7c-1.4-0.3-2.8-0.6-4.2-1
		c-1.2-0.3-2.4-0.7-3.5-1.2c-1.2-0.5-2.5-1.3-3.3-2.3c-0.7-0.9-1.1-2-1-3.2c0.2-1.4,1-2.5,2-3.4c0.7-0.6,1.5-1,2.4-1.3
		c1.1-0.4,2.3-0.7,3.5-0.8c2.4-0.3,4.8-0.1,7.1,0.4c3.5,0.7,6.8,2.1,9.9,4c2.4-3.3,4.9-6.7,7.3-10c-4.9-3.5-10.4-5.8-16.4-6.7
		c-3.3-0.5-6.7-0.6-10-0.1c-2.6,0.3-5.1,1-7.5,2c-3.2,1.3-6,3.3-8.3,6c-1.6,2-2.8,4.2-3.4,6.6c-0.8,3-0.8,6.2,0.1,9.2
		c0.9,2.8,2.5,5.1,4.6,7c4.5,3.9,10.9,5.4,16.4,6.6c1.9,0.4,3.8,0.8,5.7,1.3c1.5,0.4,3.1,1,4.5,1.8c1.1,0.6,2.1,1.5,2.7,2.6
		c0.6,0.9,0.8,2,0.7,3.1c-0.1,1-0.5,2-1.1,2.8c-0.7,1-1.7,1.7-2.8,2.2c-1.4,0.7-3,1.1-4.5,1.3c-2.1,0.3-4.4,0.2-6.5,0
		c-2.4-0.3-4.6-0.8-6.9-1.7c-3.4-1.3-6.4-3.1-9.3-5.3c-2.6,3.5-5.2,6.9-7.8,10.4c4.6,3.8,9.9,6.7,15.7,8.3c3.2,0.9,6.4,1.4,9.7,1.5
		c2.7,0.1,5.3-0.1,7.9-0.5c3.4-0.6,6.7-1.7,9.7-3.4c2.2-1.3,4.1-2.9,5.6-5c2-2.6,3.3-5.7,3.8-8.9C370.1,279.5,369.9,276.7,369,274.2
		z"/>
	<path class="st0" d="M290.7,265.9c0,1.7,0,3.4-0.1,5.1c-0.1,1.1-0.2,2.2-0.4,3.2c-0.4,2-1,3.9-2.2,5.7c-2.7,4.2-7.5,6.3-12.3,6.4
		c-4.9,0.1-9.6-2-12.2-6.4c-1.1-1.8-1.7-3.7-2.1-5.7c-0.5-2.7-0.6-5.5-0.7-8.3c0-1.8-0.1-3.6-0.1-5.3c0-3,0-6.1,0-9.1
		c0-4.8,0-9.5,0-14.5c-4.9,0-9.7,0-14.6,0c0,5,0,19.8,0,24.8c0,2.4,0,4.8,0.1,7.2c0.1,1.7,0.1,3.5,0.3,5.2c0.4,4.1,1.1,8.2,3,11.9
		c3.9,7.8,11.4,12.3,19.7,13.2c4.1,0.5,8.3,0.1,12.3-1c3.8-1.1,7.8-3.2,10.7-6.1c0.1,2,0.3,3.8,0.4,5.8c4.3,0,8.5,0,12.5,0
		c0-20,0-41,0-61c-5,0-9.4,0-14.3,0C290.7,241,290.7,262,290.7,265.9z"/>
</g>
<g>
</g>
<g>
</g>
<g>
</g>
<g>
</g>
<g>
</g>
<g>
</g>
<g>
</g>
<g>
</g>
<g>
</g>
<g>
</g>
<g>
</g>
<g>
</g>
<g>
</g>
<g>
</g>
<g>
</g>
</svg>
