<?xml version="1.0" encoding="utf-8"?>
<!-- Generator: Adobe Illustrator 21.0.0, SVG Export Plug-In . SVG Version: 6.00 Build 0)  -->
<svg version="1.1" id="Layer_1" xmlns="http://www.w3.org/2000/svg" xmlns:xlink="http://www.w3.org/1999/xlink" x="0px" y="0px"
	 viewBox="0 0 180 60.3" style="enable-background:new 0 0 180 60.3;" xml:space="preserve" >
<style type="text/css">
	.st0{fill-rule:evenodd;clip-rule:evenodd;}
</style>
<g>
	<path class="st0" d="M9.9,27.3c3.9-1.7,8.4-1.9,12.5-0.8c4.2,1.2,7.9,4.1,10,7.9l-5.5,3.3c-1-1.5-2-2.8-3.1-3.7
		c-3.5-2.9-9-2.7-12.6-0.3C8.7,35.3,7,38,6.4,40.8c-0.5,2.9,0,5.9,1.6,8.4c1.7,2.7,4.7,4.6,7.9,4.9c2.8,0.3,5.8-0.3,8-2.1
		c1.6-1.3,2.6-3.1,3.1-5.1l-10.7,0l0-6l17.4,0c0.3,3.1,0,6.3-1.2,9.2c-1.2,3-3.2,5.7-5.9,7.5C20.1,62,10.4,61,4.8,55.2
		c-5-5-6.2-13.2-3.3-19.5C3.2,32,6.2,28.9,9.9,27.3L9.9,27.3z"/>
	<polygon class="st0" points="123.9,26.2 130.4,26.2 138.4,50.1 146.3,26.2 152.8,26.2 141.4,59.8 135.3,59.8 132.4,51.6 
		123.9,26.2 	"/>
	<path class="st0" d="M155.4,26.2l10.5,0c2,0,4.1,0.2,5.9,1c2.3,0.9,4.3,2.5,5.4,4.6c1.4,2.6,1.8,5.8,1.2,8.7
		c-0.6,3-2.6,5.7-5.4,7.2l6.9,12.1l-7.2,0l-5.5-10.3l-5.6,0l0,10.3h-6.3L155.4,26.2L155.4,26.2z M161.7,32.1c0,3.9,0,7.8,0,11.7
		c2.1-0.1,4.2,0.2,6.3-0.2c1.9-0.4,3.7-1.8,4.2-3.7c0.5-1.9,0.4-4.1-0.8-5.7c-1-1.3-2.6-1.8-4.2-2C165.4,32,163.5,32,161.7,32.1
		L161.7,32.1z"/>
	<path class="st0" d="M42,34.9c5.4-3.9,13.8-3.3,18.3,1.7c2.9,3.1,4,7.7,3.5,11.9c-7.2,0-14.5,0-21.7,0c0.4,2.3,1.9,4.3,4,5.3
		c2.9,1.4,6.7,1.3,9.3-0.7c1.1-0.8,1.8-1.9,2.5-3l4.9,2.9c-1.1,2.4-3.1,4.3-5.4,5.5c-3.1,1.6-6.7,2-10.1,1.4
		c-3.4-0.6-6.5-2.5-8.5-5.3c-2.3-3.2-3.1-7.4-2.3-11.2C37.2,40.1,39.2,36.9,42,34.9L42,34.9z M47.4,38.3c-2.3,0.8-4.1,2.7-4.9,5
		l15.2,0c-0.3-1.1-0.7-2.1-1.4-2.9C54.1,37.9,50.4,37.3,47.4,38.3L47.4,38.3z"/>
	<path class="st0" d="M71.2,35c3.7-2.8,9.1-3.5,13.3-1.5c1.2,0.6,2.3,1.5,3.3,2.4c0-1,0-2,0-3c2.1-0.1,4.1,0,6.2,0
		c0,9,0,17.9,0,26.9c-2.1,0-4.1,0-6.2,0c0-1.1,0-2.2,0-3.3c-1,0.9-2.1,1.9-3.3,2.6c-3.2,1.6-7,1.7-10.3,0.3c-2.4-1-4.5-2.7-5.9-4.8
		c-2.4-3.4-2.9-7.9-2-12C67,39.6,68.7,36.8,71.2,35L71.2,35z M78.6,38.1c-3.2,0.5-5.9,3.3-6.5,6.6c-0.6,3.1,0.7,6.6,3.3,8.4
		c2.2,1.6,5.2,1.9,7.7,0.9c1.8-0.7,3.3-2.2,4.2-4c0.9-1.9,1.1-4.2,0.5-6.3c-0.6-2-1.9-3.8-3.8-4.8C82.4,38.1,80.4,37.8,78.6,38.1
		L78.6,38.1z"/>
	<path class="st0" d="M97.8,32.9c2.1,0,4.1,0,6.2,0c0,1.2,0,2.5,0,3.7c0.8-1.2,1.8-2.5,3.2-3c2.7-1.1,5.8-0.9,8.4,0.4l-2.3,5.9
		c-1.8-1-4.1-1.3-6-0.6c-1.5,0.5-2.5,1.8-2.9,3.3c-0.4,1.7-0.3,3.4-0.3,5.1c0,4,0,8,0,12c-2.1,0.1-4.1,0-6.2,0
		C97.7,50.8,97.7,41.9,97.8,32.9L97.8,32.9z"/>
	<polygon class="st0" points="21.1,0.5 27.7,0.5 30.4,15.2 26.3,15.2 24.4,2.1 22.4,15.2 18.4,15.2 21.1,0.5 	"/>
	<polygon class="st0" points="33.4,0.5 39.5,0.5 41.3,11.6 43.1,0.5 49.1,0.5 49.4,15.2 45.7,15.2 45.6,2.2 43.2,15.2 41.9,15.2 
		40.7,15.2 39.4,15.2 37,2.2 36.9,15.2 33.2,15.2 33.4,0.5 	"/>
	<polygon class="st0" points="81,0.5 86.5,0.5 89.8,11.5 89.6,0.5 93.4,0.5 93.4,15.2 88.1,15.2 84.5,3.6 84.7,15.2 80.9,15.2 
		81,0.5 	"/>
	<path class="st0" d="M73.2,0.5h3.9c0,3.6,0,7.2,0,10.8c0,2.9-1.7,4.4-5.2,4.4c-3.5,0-5.2-1.5-5.2-4.4c0-3.6,0-7.2,0-10.8h3.9
		c0,3.7,0,7.4,0,11.1c0,0.7,0.6,1.3,1.3,1.3c0.7,0,1.3-0.5,1.3-1.3C73.2,7.9,73.2,4.2,73.2,0.5L73.2,0.5z"/>
	<path class="st0" d="M102.2,6.9h5.3c0,1.4,0,2.8,0,4.3c0,2.8-1.6,4.4-5.2,4.4c-3.7,0-5.2-1.7-5.2-4.4c0-2.2,0-4.4,0-6.6
		c0-2.8,1.6-4.4,5.2-4.4c3.7,0,5.2,1.7,5.2,4.4v0.8h-3.8v-1c0-0.8-0.6-1.4-1.4-1.4c-0.7,0-1.5,0.5-1.5,1.3c0,2.4,0,4.8,0,7.2
		c0,0.8,0.6,1.4,1.4,1.4c0.7,0,1.4-0.5,1.4-1.3V9.1h-1.5V6.9L102.2,6.9z"/>
	<path class="st0" d="M61.7,7.7c1.3,1,1.8,1.8,1.8,3.7c0,2.7-1.6,4.4-5.3,4.4c-3.7,0-5.2-1.7-5.2-4.4v-1.1h4v1.3
		c0,0.8,0.4,1.4,1.3,1.4c0.7,0,1.4-0.5,1.4-1.3c0-1.4-0.9-1.8-2.1-2.5C56.5,8.7,55,8,54.1,7.1c-0.7-0.7-1.2-1.7-1.2-2.8
		c0-2.8,1.7-4.3,5.1-4.3c3.7,0,5.2,1.6,5.2,4.2v0.6h-3.9V4.1c0-1-0.5-1.4-1.3-1.4c-0.7,0-1.3,0.4-1.3,1.2C56.8,5.5,60,6.2,61.7,7.7
		L61.7,7.7z"/>
	<path class="st0" d="M14.3,7.6c1.4,0.9,1.8,1.9,1.8,3.8c0,2.7-1.7,4.3-5.3,4.3c-3.7,0-5.3-1.7-5.3-4.4v-1h4.1v1.3
		c0,0.8,0.4,1.4,1.3,1.4c0.7,0,1.4-0.5,1.4-1.3c0-1.4-0.9-1.8-2.1-2.5C9.1,8.6,7.6,7.9,6.7,7C6,6.4,5.5,5.4,5.5,4.3
		C5.5,1.5,7.4,0,10.7,0c3.7,0,5.2,1.5,5.2,4.2v0.6H12V4c0-1-0.6-1.4-1.3-1.4c-0.7,0-1.3,0.4-1.3,1.2C9.4,5.5,12.6,6.1,14.3,7.6
		L14.3,7.6z"/>
</g>
</svg>
