<?xml version="1.0" encoding="utf-8"?>
<!-- Generator: Adobe Illustrator 19.0.0, SVG Export Plug-In . SVG Version: 6.00 Build 0)  -->
<svg version="1.1" xmlns="http://www.w3.org/2000/svg" xmlns:xlink="http://www.w3.org/1999/xlink" x="0px" y="0px"
	 viewBox="0 0 371.2 71" style="enable-background:new 0 0 371.2 71;" xml:space="preserve">
<g>
	<path d="M104,70.1c-4.4,0-8.3-0.7-11.9-2.1c-3.6-1.4-6.7-3.4-9.2-5.9c-2.6-2.5-4.5-5.4-6-8.8c-1.4-3.4-2.1-7-2.1-10.8
		c0-3.9,0.7-7.5,2.2-11c1.5-3.4,3.5-6.4,6.1-8.9c2.6-2.5,5.6-4.5,9.1-5.9c3.5-1.5,7.3-2.2,11.3-2.2c4.1,0,7.9,0.7,11.4,2
		c3.5,1.3,6.5,3.2,9,5.6c2.5,2.4,4.5,5.2,5.9,8.5c1.4,3.3,2.1,6.8,2.1,10.7v4.5H87c0.9,3.9,2.8,7.1,5.8,9.5c3,2.4,6.7,3.6,11.3,3.6
		c3.6,0,6.7-0.9,9.4-2.7c2.7-1.8,4.6-4.1,6-7.1l10.5,6.1c-2.4,4.5-5.8,8.1-10.1,10.9C115.5,68.7,110.2,70.1,104,70.1 M103.6,25.7
		c-3.9,0-7.2,0.9-10,2.6c-2.8,1.7-4.8,3.9-5.9,6.7h31.5c-0.9-3-2.8-5.3-5.5-6.9C110.9,26.5,107.5,25.7,103.6,25.7"/>
	<path d="M163.3,70.1c-3.3,0-6.7-0.6-9.9-1.9c-3.3-1.2-6.2-3.1-8.8-5.4c-2.6-2.4-4.7-5.3-6.3-8.7c-1.6-3.4-2.4-7.4-2.4-11.7
		c0-4.4,0.8-8.4,2.3-11.8c1.5-3.4,3.6-6.4,6.2-8.7c2.6-2.4,5.5-4.2,8.8-5.4c3.3-1.3,6.7-1.9,10.2-1.9c3.7,0,7,0.7,10.1,2
		c3.1,1.3,5.7,3.1,7.7,5.4v-7.3h12.8V70h-12.8v-7.9c-2,2.5-4.6,4.4-7.8,5.8C170.3,69.4,166.9,70.1,163.3,70.1 M165.3,58.3
		c2.4,0,4.6-0.4,6.6-1.2c2-0.8,3.8-2,5.2-3.5c1.5-1.5,2.6-3.2,3.5-5.2c0.9-2,1.3-4.1,1.3-6.3c0-2.2-0.4-4.3-1.3-6.2
		c-0.9-2-2-3.7-3.5-5.1c-1.5-1.5-3.2-2.6-5.2-3.4c-2-0.8-4.2-1.2-6.6-1.2c-2.3,0-4.5,0.4-6.6,1.2c-2.1,0.8-3.8,2-5.4,3.4
		c-1.5,1.4-2.7,3.1-3.6,5.1c-0.9,2-1.3,4.1-1.3,6.3c0,2.3,0.4,4.4,1.3,6.4c0.9,2,2,3.7,3.6,5.2c1.5,1.5,3.3,2.6,5.4,3.4
		C160.8,57.9,163,58.3,165.3,58.3"/>
	<path d="M201.8,14.5h12.7v8.2c2.6-5.5,7.3-8.2,14.2-8.2c2,0,3.8,0.2,5.4,0.7c1.6,0.4,3,1,4.3,1.7L233.7,29c-0.9-0.6-2-1.2-3.2-1.6
		c-1.2-0.4-2.7-0.6-4.5-0.6c-3.7,0-6.6,1.1-8.5,3.2c-1.9,2.1-2.9,5.6-2.9,10.4V70h-12.8V14.5z"/>
	<path d="M35.9,71c20.7,0,33.8-16,33.8-34.7v-5.1H33.8v12.3h22.1c-2.5,9.1-9.7,15-20,15c-13.4,0-23.1-10.2-23.1-23
		c0-12.6,9.8-23,22.6-23c9.1,0,15.7,4.2,20,12l11.4-6.8C60.9,7.3,49.6,0,35.3,0C14.9,0,0,15.8,0,35.5C0,54.7,14.3,71,35.9,71"/>
	<polygon points="256.2,0.8 269.6,0.8 286,50.3 302.3,0.8 315.6,0.8 292.4,70 279.4,70 	"/>
	<path d="M321,70V0.8h22.2c4.1,0,7.8,0.6,10.9,1.8c3.2,1.2,5.9,2.8,8.1,4.9c2.2,2.1,3.9,4.6,5.1,7.6c1.2,2.9,1.8,6.2,1.8,9.8
		c0,4.2-1,8.1-3,11.7c-2,3.6-4.9,6.5-8.7,8.5L371.2,70h-14.7l-11.1-21.1h-11.6V70H321z M342.1,37c2.7,0,4.9-0.3,6.7-1
		c1.8-0.7,3.3-1.6,4.4-2.7c1.1-1.2,1.9-2.5,2.4-4c0.5-1.5,0.7-3.1,0.7-4.8c0-3.5-1.1-6.3-3.4-8.4c-2.2-2.1-5.8-3.1-10.8-3.1h-8.1V37
		H342.1z"/>
</g>
</svg>
