<?xml version="1.0" encoding="utf-8"?>
<!-- Generator: Adobe Illustrator 19.0.0, SVG Export Plug-In . SVG Version: 6.00 Build 0)  -->
<svg version="1.1" id="Oculus_Logo" xmlns="http://www.w3.org/2000/svg" xmlns:xlink="http://www.w3.org/1999/xlink" x="0px"
	 y="0px" viewBox="0 0 245.3 148.1" style="enable-background:new 0 0 245.3 148.1;" xml:space="preserve">
<style type="text/css">
	.st0{fill:#1C1E20;}
</style>
<path class="st0" d="M217.8,16.8C209.2,9.8,199.3,5,188.5,2.5c-6.2-1.5-12.3-2.1-18.6-2.3c-4.7-0.2-9.3-0.1-14-0.1
	c-22.2,0-44.3,0-66.5,0c-4.7,0-9.3,0-14,0.1C69.1,0.3,62.9,1,56.8,2.5C46,5.1,36.1,9.8,27.5,16.8C10.1,30.7,0,51.8,0,74.1
	c0,22.3,10.1,43.3,27.5,57.3c8.6,6.9,18.5,11.7,29.3,14.3c6.2,1.5,12.3,2.1,18.6,2.3c4.7,0.2,9.3,0.1,14,0.1c22.2,0,44.3,0,66.5,0
	c4.7,0,9.3,0,14-0.1c6.3-0.2,12.5-0.9,18.6-2.3c10.8-2.6,20.6-7.4,29.3-14.3c17.4-13.9,27.5-35,27.5-57.3
	C245.3,51.8,235.2,30.7,217.8,16.8z M185.4,94c-3.3,2.3-6.9,3.6-10.8,4.2c-3.9,0.6-7.8,0.5-11.7,0.5c-26.8,0-53.6,0-80.5,0
	c-3.9,0-7.8,0.1-11.7-0.5c-3.9-0.6-7.5-2-10.8-4.3C53.4,89.5,49.4,82,49.4,74.1c0-8,4-15.4,10.5-19.9c3.3-2.3,6.9-3.6,10.8-4.2
	c3.9-0.6,7.8-0.5,11.7-0.5c26.8,0,53.6,0,80.5,0c3.9,0,7.8-0.1,11.7,0.5c3.9,0.6,7.5,2,10.8,4.3c6.6,4.5,10.5,11.9,10.5,19.9
	C195.9,82.1,192,89.5,185.4,94z"/>
<g>
</g>
<g>
</g>
<g>
</g>
<g>
</g>
<g>
</g>
<g>
</g>
</svg>
