<?xml version="1.0" encoding="iso-8859-1"?>
<!-- Generator: Adobe Illustrator 19.0.0, SVG Export Plug-In . SVG Version: 6.00 Build 0)  -->
<svg xmlns="http://www.w3.org/2000/svg" xmlns:xlink="http://www.w3.org/1999/xlink" version="1.1" id="Capa_1" x="0px" y="0px" viewBox="0 0 512 512" style="enable-background:new 0 0 512 512;" xml:space="preserve" fill="#fff">
<g>
	<g>
		<polygon points="64.116,71.859 0,135.976 179.181,206.158 279.629,105.71   " fill="#FFFFFF"/>
	</g>
</g>
<g>
	<g>
		<path d="M501.905,10.593C489.743-1.57,468.721-2.766,441.099,7.133c-18.995,6.81-38.919,18.222-48.451,27.754L142.236,285.301    l-95.472,5.591L0.985,336.67l74.806,36.096l35.523-35.523l41.736,0.744l-48.604,48.604l0.149,0.072L75.569,415.69l21.24,21.24    l28.987-28.987l0.139,0.288l48.68-48.68v42.48l-34.841,34.841l36.063,74.631l45.768-45.769l5.592-95.472l250.413-250.413    c9.532-9.531,20.945-29.455,27.755-48.451C515.264,43.781,514.068,22.754,501.905,10.593z" fill="#FFFFFF"/>
	</g>
</g>
<g>
	<g>
		<polygon points="408.036,232.564 307.733,332.867 377.634,511.327 441.75,447.211   " fill="#FFFFFF"/>
	</g>
</g>
<g>
</g>
<g>
</g>
<g>
</g>
<g>
</g>
<g>
</g>
<g>
</g>
<g>
</g>
<g>
</g>
<g>
</g>
<g>
</g>
<g>
</g>
<g>
</g>
<g>
</g>
<g>
</g>
<g>
</g>
</svg>
