<?xml version="1.0" encoding="iso-8859-1"?>
<!-- Generator: Adobe Illustrator 19.0.0, SVG Export Plug-In . SVG Version: 6.00 Build 0)  -->
<svg xmlns="http://www.w3.org/2000/svg" xmlns:xlink="http://www.w3.org/1999/xlink" version="1.1" id="Layer_1" x="0px" y="0px" viewBox="0 0 512 512" style="enable-background:new 0 0 512 512;" xml:space="preserve" >
<g>
	<g>
		<path d="M487.011,25.004C470.9,8.88,449.467,0.002,426.667,0.002c-22.789,0-44.222,8.878-60.333,24.995L356.27,35.061    l120.666,120.667L487,145.664c16.122-16.117,25-37.544,25-60.333C512,62.537,503.122,41.109,487.011,25.004z" fill="#FFFFFF"/>
	</g>
</g>
<g>
	<g>
		<path d="M32.333,369.523L3.245,488.108c-1.422,5.795,0.289,11.917,4.511,16.134c3.232,3.239,7.599,5,12.066,5    c1.355,0,2.723-0.162,4.066-0.489l118.584-29.088L32.333,369.523z" fill="#FFFFFF"/>
	</g>
</g>
<g>
	<g>
		
			<rect x="89.549" y="262.063" transform="matrix(0.7071 -0.7071 0.7071 0.7071 -125.028 290.5388)" width="397.297" height="68.257" fill="#FFFFFF"/>
	</g>
</g>
<g>
	<g>
		
			<rect x="17.145" y="189.667" transform="matrix(0.7071 -0.7071 0.7071 0.7071 -95.0437 218.1378)" width="397.297" height="68.259" fill="#FFFFFF"/>
	</g>
</g>
<g>
	<g>
		<path d="M197.467,82.664l-43.266,43.265c-3.334,3.334-7.701,5-12.066,5c-4.366,0-8.734-1.667-12.066-5    c-6.666-6.666-6.666-17.472,0-24.133l43.266-43.265l-47.668-47.667c-6.666-6.666-17.467-6.666-24.133,0L5.001,107.397    c-6.667,6.662-6.667,17.473,0,24.133l103.264,103.264l120.667-120.667L197.467,82.664z" fill="#FFFFFF"/>
	</g>
</g>
<g>
	<g>
		<path d="M501.132,386.33l-47.665-47.666l-43.266,43.266c-3.334,3.334-7.701,5-12.066,5s-8.734-1.667-12.066-5    c-6.666-6.666-6.666-17.472,0-24.133l43.266-43.266l-31.466-31.466L277.203,403.734l103.264,103.264    c3.334,3.334,7.701,5.001,12.066,5.001c4.366,0,8.734-1.667,12.066-5.001l96.534-96.534    C507.798,403.803,507.798,392.992,501.132,386.33z" fill="#FFFFFF"/>
	</g>
</g>
<g>
</g>
<g>
</g>
<g>
</g>
<g>
</g>
<g>
</g>
<g>
</g>
<g>
</g>
<g>
</g>
<g>
</g>
<g>
</g>
<g>
</g>
<g>
</g>
<g>
</g>
<g>
</g>
<g>
</g>
</svg>
