<?xml version="1.0" encoding="utf-8"?>
<!-- Generator: Adobe Illustrator 21.0.0, SVG Export Plug-In . SVG Version: 6.00 Build 0)  -->
<svg version="1.1" id="Layer_1" xmlns="http://www.w3.org/2000/svg" xmlns:xlink="http://www.w3.org/1999/xlink" x="0px" y="0px"
	 viewBox="0 0 97 73.3" style="enable-background:new 0 0 97 73.3;" xml:space="preserve">
<style type="text/css">
	.st0{fill:#FFFFFF;}
	.st1{display:none;enable-background:new    ;}
	.st2{display:inline;}
</style>
<path class="st0" d="M79.1,63.5c-0.2-0.8-0.2-2.2-0.2-3.7c0-5,0.1-12.6-5.7-21.7l0,0l-3.5-5.5c-0.6-1-1.6-1.6-2.7-1.9
	c-1.1-0.2-2.3,0-3.2,0.6c0,0,0,0-0.1,0c-0.6,0.4-1,0.9-1.3,1.4c-0.5-0.4-1.1-0.7-1.7-0.8c-1.1-0.3-2.3,0-3.3,0.6l-0.1,0.1
	c-0.7,0.5-1.3,1.2-1.6,2c-1.3-0.6-2.7-0.5-4,0.2c-0.1,0-0.1,0.1-0.2,0.1c-0.6,0.4-1,0.8-1.3,1.3l-5.7-8.9c-0.7-1.1-1.7-1.8-3-2.1
	c-1.2-0.3-2.5-0.1-3.6,0.6l0,0c0,0,0,0-0.1,0c-1.1,0.7-1.8,1.7-2.1,3c-0.3,1.2-0.1,2.5,0.6,3.6l9.5,14.9c-0.5,0.2-0.9,0.5-1.4,0.8
	c-0.2,0.1-0.4,0.3-0.7,0.5l0,0c-1.1,0.7-1.9,1.8-2.2,3.1s-0.1,2.6,0.7,3.8l3.3,5.2c0.1,0.1,0.1,0.2,0.2,0.2c4,5.5,8.9,7,12.2,7.9
	c0.9,0.3,1.7,0.5,2.3,0.8c0.1,0,0.2,0.1,0.3,0.1l0,0c1.5,0.3,2,1.1,2.9,2.5l0.3,0.5c0.2,0.4,0.7,0.6,1.1,0.6c0.2,0,0.5-0.1,0.7-0.2
	c0.6-0.4,0.8-1.2,0.4-1.8l-0.3-0.5c-0.9-1.5-1.9-3.1-4.5-3.7l0,0c-0.7-0.3-1.5-0.5-2.5-0.8c-3.3-1-7.9-2.3-11.5-8l0,0L44.3,54
	c-0.3-0.5-0.5-1.2-0.3-1.8c0.1-0.6,0.5-1.2,1.1-1.5l0,0c0.3-0.2,0.5-0.3,0.7-0.5c0.4-0.3,1.1-0.7,1.3-0.8c0,0,0.1,0.1,0.2,0.3
	l3.9,6.1c0.2,0.4,0.7,0.6,1.1,0.6c0.2,0,0.5-0.1,0.7-0.2c0.6-0.4,0.8-1.2,0.4-1.8l-3.9-6.1l0,0l0,0L38.5,31
	c-0.3-0.5-0.4-1.1-0.3-1.6c0.1-0.6,0.5-1,0.9-1.4l0,0c0,0,0,0,0.1,0c0.5-0.3,1.1-0.4,1.6-0.3c0.6,0.1,1,0.5,1.4,0.9L50,40.9l0,0l0,0
	l3.7,5.7c0.2,0.4,0.7,0.6,1.1,0.6c0.2,0,0.5-0.1,0.7-0.2c0.6-0.4,0.8-1.2,0.4-1.8l-3.7-5.7c-0.5-0.8-0.3-2,0.6-2.5l0,0
	c0.9-0.5,2-0.3,2.5,0.6l3.7,5.7c0.2,0.4,0.7,0.6,1.1,0.6c0.2,0,0.5-0.1,0.7-0.2c0.6-0.4,0.8-1.2,0.4-1.8l-3-4.8l0,0
	c-0.3-0.4-0.3-0.9-0.2-1.4s0.4-0.9,0.8-1.1l0,0c0.4-0.3,0.9-0.4,1.4-0.2c0.5,0.1,0.9,0.4,1.1,0.8l1.2,1.9l0,0l0,0l2.4,3.8
	c0.2,0.4,0.7,0.6,1.1,0.6c0.2,0,0.5-0.1,0.7-0.2c0.6-0.4,0.8-1.2,0.4-1.8l-2.4-3.8l0,0c-0.2-0.4-0.3-0.8-0.2-1.3
	c0.1-0.4,0.4-0.8,0.7-1.1l0,0c0.4-0.2,0.8-0.3,1.3-0.2c0.4,0.1,0.8,0.4,1.1,0.7l3.5,5.5c5.4,8.5,5.3,15.6,5.3,20.3
	c0,1.8,0,3.2,0.3,4.4c0.1,0.6,0.7,1,1.3,1c0.1,0,0.2,0,0.3,0C78.8,64.9,79.3,64.2,79.1,63.5z"/>
<path class="st0" d="M25.9,10c-5.7,0-10.3,4.6-10.3,10.3s4.6,10.3,10.3,10.3S36.2,26,36.2,20.3S31.5,10,25.9,10z M24.5,24l-3.7-3.7
	l1.5-1.5l2.2,2.2l4.7-4.7l1.5,1.5L24.5,24z"/>
<path class="st0" d="M91.1,0H5.9C2.7,0,0,2.6,0,5.9v53.6c0,3.2,2.6,5.9,5.9,5.9h35.9l-1.9-2.7H40l-2.5-3.8H11.6V6.8h77.7v52.1h-5.8
	l1.7,6.5h5.9c3.2,0,5.9-2.6,5.9-5.9V5.9C97,2.6,94.4,0,91.1,0z M5.8,33.7c-1.2,0-2.2-1-2.2-2.2s1-2.2,2.2-2.2s2.2,1,2.2,2.2
	C7.9,32.7,7,33.7,5.8,33.7z"/>
<text transform="matrix(1 0 0 1 -1.6 101.2)" class="st1" style="font-family:'HelveticaNeue-Bold'; font-size:5px;">Created by Aneeque Ahmed</text>
<text transform="matrix(1 0 0 1 -1.6 106.2)" class="st1" style="font-family:'HelveticaNeue-Bold'; font-size:5px;">from the Noun Project</text>
</svg>
