<svg xmlns="http://www.w3.org/2000/svg" xmlns:xlink="http://www.w3.org/1999/xlink" viewBox="0 0 26 26" version="1.1" width="120px" fill="#fff">
<g id="surface1">
<path style=" " d="M 13 2 C 11.664063 2 10.445313 2.398438 9.53125 3.09375 C 8.890625 3.582031 8.425781 4.246094 8.1875 5 L 3 5 C 1.355469 5 0 6.355469 0 8 L 0 14.8125 C -0.0078125 14.875 -0.0078125 14.9375 0 15 L 0 23 C 0 24.644531 1.355469 26 3 26 L 23 26 C 24.644531 26 26 24.644531 26 23 L 26 8 C 26 6.355469 24.644531 5 23 5 L 17.8125 5 C 17.574219 4.246094 17.109375 3.582031 16.46875 3.09375 C 15.554688 2.398438 14.335938 2 13 2 Z M 13 4 C 13.941406 4 14.734375 4.296875 15.25 4.6875 C 15.378906 4.785156 15.5 4.894531 15.59375 5 L 10.40625 5 C 10.5 4.894531 10.621094 4.785156 10.75 4.6875 C 11.265625 4.296875 12.058594 4 13 4 Z M 3 7 L 23 7 C 23.566406 7 24 7.433594 24 8 L 24 14.84375 C 24 14.875 24 14.90625 24 14.9375 L 24 15 C 24 15.566406 23.566406 16 23 16 L 15 16 C 15 15.449219 14.550781 15 14 15 L 12 15 C 11.449219 15 11 15.449219 11 16 L 3 16 C 2.433594 16 2 15.566406 2 15 C 2.007813 14.9375 2.007813 14.875 2 14.8125 L 2 8 C 2 7.433594 2.433594 7 3 7 Z M 11 18 L 15 18 L 15 19 C 15 19.550781 14.550781 20 14 20 L 12 20 C 11.449219 20 11 19.550781 11 19 Z "></path>
</g>
</svg>