<?xml version="1.0" encoding="utf-8"?>
<!-- Generator: Adobe Illustrator 21.0.0, SVG Export Plug-In . SVG Version: 6.00 Build 0)  -->
<svg version="1.1" id="Layer_1" xmlns="http://www.w3.org/2000/svg" xmlns:xlink="http://www.w3.org/1999/xlink" x="0px" y="0px"
	 viewBox="0 0 91 91" style="enable-background:new 0 0 91 91;" xml:space="preserve">
<style type="text/css">
	.st0{fill:#FFFFFF;}
</style>
<g>
	<g>
		<g>
			<g>
				<path class="st0" d="M81.9,22.7c-0.8-2-1.8-3.9-2.9-5.8c-3.1-5-7.3-9.1-12.3-12.2C61.6,1.6,56,0.3,50.1,0.1
					c-5.8-0.2-11.3,0.7-16.5,3.3C27,6.7,21.8,11.7,18.1,18.3c-0.8,1.5-1.5,3-2.1,4.5c-3.3,1-6,3.5-7.4,6.6C3.8,30,0.1,34,0.1,39v4.3
					c0,5,3.8,9.2,8.7,9.7c1.5,3.1,4.3,5.4,7.7,6.3c0.5,1.6,0.9,3.2,1.5,4.8c3.3,9.1,9.8,15.9,14.6,20c4,3.4,7.3,5.9,12.7,6.8
					c1.2,0.2,2.4,0.3,3.5,0.3c4.5,0,8-1.6,11.9-4.1c8.4-5.4,15-13.2,18.5-22.1c0.7-1.8,1.4-3.7,1.9-5.6c5.3-1.2,9.2-6,9.2-11.6V34.1
					C90.4,28.7,86.8,24.2,81.9,22.7z M35.9,7.9c4.4-2.2,9.1-2.9,14-2.8c5,0.2,9.8,1.3,14.2,4c4.4,2.7,7.9,6.2,10.6,10.5
					c0.5,0.9,1,1.7,1.4,2.6H21.7c0.2-0.5,0.5-1,0.8-1.5C25.7,15.1,30.2,10.8,35.9,7.9z M5.1,43.2V39c0-1.8,1-3.3,2.4-4.1v12.4
					C6.1,46.5,5.1,45,5.1,43.2z M58,82.6c-4,2.6-7.1,3.9-11.9,3.1c-4.1-0.7-6.6-2.6-10.3-5.7c-4.4-3.7-10.2-9.8-13.1-17.9
					c-0.3-0.9-0.6-1.8-0.9-2.7h17.9c0.7,0,1.4-0.3,1.8-0.8l7.4-8l7.4,8c0.5,0.5,1.1,0.8,1.8,0.8h17.6c-0.4,1.1-0.8,2.3-1.2,3.4
					C71.4,70.8,65.6,77.8,58,82.6z M85.4,47.6c0,3.8-3.1,6.9-6.9,6.9H59.3l-8.5-9.1c-1-1-2.7-1-3.7,0l-8.5,9.1H19.5
					c-3.8,0-6.9-3.1-6.9-6.9V34.1c0-3.8,3.1-6.9,6.9-6.9h59c3.8,0,6.9,3.1,6.9,6.9C85.4,34.1,85.4,47.6,85.4,47.6z"/>
				<path class="st0" d="M56.7,66.1c-7,1.6-15.1,0.2-15.2,0.2c-1.4-0.2-2.7,0.7-2.9,2c-0.2,1.4,0.7,2.7,2,2.9c0.2,0,3.8,0.6,8.3,0.6
					c2.8,0,5.9-0.2,8.9-0.9c1.4-0.3,2.2-1.7,1.9-3S58.1,65.8,56.7,66.1z"/>
				<path class="st0" d="M47.7,62.6c0.4,0,0.8-0.1,1.2-0.3c2.6-1.4,4-2.3,4.1-2.3c1.2-0.7,1.5-2.3,0.8-3.5c-0.7-1.2-2.3-1.5-3.5-0.8
					c0,0-1.3,0.8-3.8,2.2c-1.2,0.7-1.7,2.2-1,3.4C45.9,62.2,46.8,62.6,47.7,62.6z"/>
			</g>
		</g>
	</g>
</g>
</svg>
