<?xml version="1.0" encoding="iso-8859-1"?>
<!-- Generator: Adobe Illustrator 19.0.0, SVG Export Plug-In . SVG Version: 6.00 Build 0)  -->
<svg xmlns="http://www.w3.org/2000/svg" xmlns:xlink="http://www.w3.org/1999/xlink" version="1.1" id="Capa_1" x="0px" y="0px" viewBox="0 0 496 496" style="enable-background:new 0 0 496 496;" xml:space="preserve">
<g>
	<g>
		<g>
			<path d="M450.712,447.608c-13.584-24.456-38.264-41.12-66.008-44.584L304,392.936v-6.984     c26.128-13.88,46.872-37.208,57.064-65.952H368c13.232,0,24-10.768,24-24h8c13.232,0,24-10.768,24-24v-72     c0-7.064-3.128-13.36-8-17.76V152C416,68.184,347.816,0,264,0h-32C148.184,0,80,68.184,80,152v30.24     c-4.872,4.392-8,10.696-8,17.76v72c0,13.232,10.768,24,24,24h8c0,13.232,10.768,24,24,24h6.936     c10.192,28.736,30.944,52.072,57.064,65.952v6.984l-80.696,10.088c-27.752,3.472-52.424,20.136-66.008,44.584L18.4,496h459.2     L450.712,447.608z M104,280h-8c-4.408,0-8-3.584-8-8v-72c0-4.416,3.592-8,8-8h8V280z M105.472,176H96v-24     c0-74.992,61.008-136,136-136h32c74.992,0,136,61.008,136,136v24h-9.472c-3.312-9.288-12.112-16-22.528-16H128     C117.584,160,108.784,166.712,105.472,176z M296,192h-96v-16h96V192z M344,208v64H152v-64H344z M128,304c-4.408,0-8-3.584-8-8     V184c0-4.416,3.592-8,8-8h56v16h-48v96h224v-96h-48v-16h56c4.408,0,8,3.584,8,8v64h16v-56h8c4.408,0,8,3.584,8,8v72     c0,4.416-3.592,8-8,8h-8v-16h-16v32c0,4.416-3.592,8-8,8H128z M152.056,320h191.896c-15.976,38.144-53.952,64-95.944,64     C206.008,384,168.024,358.152,152.056,320z M288,392.976v5.856c-1.368,4.152-9.768,25.168-40,25.168     c-30.224,0-38.608-20.92-40-25.176v-5.856c12.64,4.528,26.12,7.032,40,7.032S275.36,397.496,288,392.976z M401.392,480     l-6.712-33.568l-15.688,3.144l6.08,30.424h-268.48l6.088-30.432l-15.688-3.144L100.272,480H45.6l13.672-24.624     c11.12-20,31.312-33.64,54.008-36.48l81.4-10.168C200.92,422.184,217.056,440,248,440c30.944,0,47.08-17.816,53.312-31.272     l81.4,10.168c22.704,2.832,42.896,16.48,54.008,36.48L450.4,480H401.392z" fill="#FFFFFF"/>
			<path d="M288,328h-16c0,13.232-10.768,24-24,24s-24-10.768-24-24h-16c0,22.056,17.944,40,40,40C270.056,368,288,350.056,288,328z     " fill="#FFFFFF"/>
		</g>
	</g>
</g>
<g>
</g>
<g>
</g>
<g>
</g>
<g>
</g>
<g>
</g>
<g>
</g>
<g>
</g>
<g>
</g>
<g>
</g>
<g>
</g>
<g>
</g>
<g>
</g>
<g>
</g>
<g>
</g>
<g>
</g>
</svg>
