<?xml version="1.0" encoding="utf-8"?>
<!-- Generator: Adobe Illustrator 19.0.0, SVG Export Plug-In . SVG Version: 6.00 Build 0)  -->
<svg version="1.1" id="Layer_1" xmlns="http://www.w3.org/2000/svg" xmlns:xlink="http://www.w3.org/1999/xlink" x="0px" y="0px"
	 viewBox="-975 982 24 13.9" style="enable-background:new -975 982 24 13.9;" xml:space="preserve">
<path d="M-951.9,982h-22.1c-0.5,0-0.9,0.4-0.9,0.9v12c0,0.5,0.4,0.9,0.9,0.9h7.9c0.3,0,0.5-0.2,0.6-0.4c0.9-3,1.1-4.8,2.7-4.8
	c1.7,0,1.9,2,2.7,4.8c0.1,0.2,0.3,0.4,0.5,0.4h7.7c0.5,0,0.9-0.4,0.9-0.9v-12C-951,982.5-951.4,982-951.9,982L-951.9,982z
	 M-968.4,991.5c-1.4,0-2.5-1.1-2.5-2.5c0-1.4,1.1-2.5,2.5-2.5c1.4,0,2.5,1.1,2.5,2.5C-965.9,990.4-967,991.5-968.4,991.5
	L-968.4,991.5z M-957.6,991.5c-1.4,0-2.5-1.1-2.5-2.5c0-1.4,1.1-2.5,2.5-2.5c1.4,0,2.5,1.1,2.5,2.5
	C-955.1,990.4-956.2,991.5-957.6,991.5L-957.6,991.5z"/>
</svg>
