<?xml version="1.0" encoding="utf-8"?>
<!-- Generator: Adobe Illustrator 19.0.0, SVG Export Plug-In . SVG Version: 6.00 Build 0)  -->
<svg version="1.1" id="Layer_1" xmlns="http://www.w3.org/2000/svg" xmlns:xlink="http://www.w3.org/1999/xlink" x="0px" y="0px"
	 viewBox="-797 953.2 109.4 95.8" style="enable-background:new -797 953.2 109.4 95.8;" xml:space="preserve">
<path d="M-749.9,953.2c-2.5,0-4.8,1.3-6,3.5l-40.1,69.5c-1.2,2.2-1.2,4.8,0,7l7.3,12.4c1.2,2.1,3.5,3.4,6,3.4h81
	c2.5,0,4.8-1.3,6-3.4l7.3-12.4c1.3-2.2,1.3-4.8,0-7l-40.1-69.5c-1.2-2.2-3.5-3.5-6-3.5H-749.9z M-742.3,978.4
	c13.2,0,35.3,34.1,27.4,47.5c-3.9,6.7-15.7,9.1-27.4,9.1c-11.7,0-23.5-2.3-27.4-9.1C-777.6,1012.3-755.5,978.4-742.3,978.4z"/>
</svg>
