<svg xmlns="http://www.w3.org/2000/svg" xmlns:xlink="http://www.w3.org/1999/xlink" viewBox="0 0 26 26" version="1.1" fill="#fff">
<g id="surface1">
<path style=" " d="M 13 0 L 0 6 L 0 7 L 2 7 C 2 7.550781 2.445313 8 3 8 L 23 8 C 23.554688 8 24 7.550781 24 7 L 26 7 L 26 6 Z M 4 9 L 4 21 L 3 21 C 2.445313 21 2 21.449219 2 22 L 2 23 L 24 23 L 24 22 C 24 21.449219 23.554688 21 23 21 L 22 21 L 22 9 L 19 9 L 19 21 L 17 21 L 17 9 L 14 9 L 14 21 L 12 21 L 12 9 L 9 9 L 9 21 L 7 21 L 7 9 Z M 1 24 C 0.445313 24 0 24.449219 0 25 L 0 26 L 26 26 L 26 25 C 26 24.449219 25.554688 24 25 24 Z "></path>
</g>
</svg>