<svg xmlns="http://www.w3.org/2000/svg" xmlns:xlink="http://www.w3.org/1999/xlink" viewBox="0 0 26 26" version="1.1" width="120px" fill="#fff">
<g id="surface1">
<path style=" " d="M 12.6875 0.09375 C 11.488281 0.292969 8.394531 0.613281 6.09375 1.3125 C 3.792969 2.210938 1.695313 3.710938 0.59375 4.3125 C -0.207031 4.710938 0.292969 5.394531 0.59375 6.09375 C 3.195313 13.792969 6.789063 16.085938 9.1875 16.6875 C 9.386719 15.386719 9.804688 13.914063 10.40625 12.3125 C 10.207031 12.3125 10.105469 12.40625 9.90625 12.40625 C 8.40625 12.90625 7 14.8125 7 14.8125 C 7 14.8125 7.207031 11.707031 9.40625 10.90625 C 9.90625 10.707031 10.5 10.710938 11 10.8125 L 11.59375 9.59375 C 11.59375 9.492188 11.6875 9.507813 11.6875 9.40625 C 11.886719 8.804688 12.40625 7.5 13.90625 7.5 C 14.105469 7.5 14.394531 7.492188 14.59375 7.59375 C 14.792969 7.792969 14.988281 7.800781 15.1875 8 C 15.085938 6.199219 14.710938 4.101563 13.8125 1.5 C 13.613281 0.898438 13.585938 -0.0078125 12.6875 0.09375 Z M 11.40625 5.40625 C 12.605469 5.40625 13.5 6.3125 13.5 6.3125 C 13.5 6.3125 12.605469 7.3125 11.40625 7.3125 C 10.207031 7.3125 9.3125 6.40625 9.3125 6.40625 C 9.3125 6.40625 10.304688 5.507813 11.40625 5.40625 Z M 6.6875 7.28125 C 7.148438 7.242188 7.5 7.3125 7.5 7.3125 C 7.5 7.3125 7.304688 8.707031 6.40625 9.40625 C 5.507813 10.105469 4.09375 9.90625 4.09375 9.90625 C 4.09375 9.90625 4.289063 8.511719 5.1875 7.8125 C 5.636719 7.460938 6.226563 7.320313 6.6875 7.28125 Z M 13.90625 9.03125 C 13.296875 9.011719 13.257813 9.789063 12.90625 10.3125 C 7.507813 21.3125 12.195313 25 13.09375 25.5 C 13.992188 25.898438 19.914063 27.304688 25.3125 16.40625 C 25.710938 15.90625 26.300781 15.1875 25.5 14.6875 C 24.5 13.988281 22.289063 12.195313 20.1875 11.09375 C 18.085938 9.992188 15.386719 9.492188 14.1875 9.09375 C 14.074219 9.054688 13.992188 9.035156 13.90625 9.03125 Z M 13.625 14.46875 C 14.0625 14.429688 14.636719 14.4375 15.1875 14.6875 C 16.1875 15.1875 16.6875 16.40625 16.6875 16.40625 C 16.6875 16.40625 15.507813 16.914063 14.40625 16.3125 C 13.40625 15.8125 12.90625 14.59375 12.90625 14.59375 C 12.90625 14.59375 13.1875 14.507813 13.625 14.46875 Z M 18.78125 16.96875 C 19.230469 16.929688 19.8125 16.9375 20.3125 17.1875 C 21.414063 17.6875 21.8125 19 21.8125 19 C 21.8125 19 20.5 19.414063 19.5 18.8125 C 18.398438 18.3125 18 17.09375 18 17.09375 C 18 17.09375 18.332031 17.007813 18.78125 16.96875 Z M 12.40625 18.09375 C 12.40625 18.09375 13.5 20.300781 15 21 C 16.5 21.699219 18.90625 21.1875 18.90625 21.1875 C 18.90625 21.1875 16.386719 23.6875 14.1875 22.6875 C 12.085938 21.6875 12.40625 18.09375 12.40625 18.09375 Z "></path>
</g>
</svg>