<svg xmlns="http://www.w3.org/2000/svg" xmlns:xlink="http://www.w3.org/1999/xlink" viewBox="0 0 64 64" version="1.1" width="120px" fill="#fff">
<g id="surface1">
<path style=" " d="M 31 0.914063 C 30.328125 0.910156 29.65625 1.132813 29.109375 1.578125 L 24.53125 5.285156 C 24.3125 5.464844 24.027344 5.542969 23.746094 5.496094 L 17.921875 4.570313 C 16.53125 4.351563 15.15625 5.148438 14.652344 6.460938 L 12.539063 11.964844 C 12.4375 12.230469 12.230469 12.4375 11.964844 12.539063 L 6.460938 14.652344 C 5.148438 15.15625 4.351563 16.53125 4.570313 17.921875 L 5.496094 23.746094 C 5.539063 24.023438 5.464844 24.308594 5.285156 24.53125 L 1.578125 29.109375 C 0.691406 30.207031 0.691406 31.792969 1.578125 32.886719 L 5.285156 37.46875 C 5.464844 37.6875 5.542969 37.972656 5.496094 38.253906 L 4.570313 44.078125 C 4.351563 45.46875 5.148438 46.84375 6.460938 47.347656 L 11.964844 49.457031 C 12.230469 49.5625 12.4375 49.769531 12.539063 50.035156 L 14.652344 55.535156 C 15.15625 56.851563 16.53125 57.648438 17.921875 57.425781 L 23.746094 56.503906 C 24.023438 56.460938 24.308594 56.535156 24.53125 56.714844 L 29.109375 60.421875 C 29.660156 60.867188 30.328125 61.089844 31 61.089844 C 31.667969 61.089844 32.339844 60.867188 32.886719 60.421875 L 37.46875 56.714844 C 37.691406 56.535156 37.976563 56.457031 38.253906 56.5 L 44.078125 57.425781 C 45.460938 57.644531 46.84375 56.851563 47.347656 55.535156 L 49.457031 50.03125 C 49.5625 49.769531 49.769531 49.558594 50.035156 49.457031 L 55.535156 47.347656 C 56.851563 46.84375 57.644531 45.46875 57.425781 44.078125 L 56.503906 38.253906 C 56.460938 37.976563 56.535156 37.691406 56.714844 37.46875 L 60.421875 32.890625 C 61.308594 31.792969 61.308594 30.207031 60.421875 29.109375 L 56.714844 24.53125 C 56.535156 24.3125 56.457031 24.023438 56.503906 23.746094 L 57.425781 17.921875 C 57.644531 16.53125 56.851563 15.15625 55.535156 14.652344 L 50.035156 12.539063 C 49.769531 12.4375 49.5625 12.230469 49.460938 11.964844 L 47.347656 6.460938 C 46.84375 5.148438 45.46875 4.355469 44.078125 4.570313 L 38.253906 5.496094 C 37.976563 5.539063 37.6875 5.464844 37.46875 5.285156 L 32.890625 1.578125 C 32.339844 1.132813 31.671875 0.914063 31 0.914063 Z M 31 2.910156 C 31.222656 2.910156 31.449219 2.984375 31.628906 3.132813 L 36.210938 6.84375 C 36.871094 7.375 37.730469 7.609375 38.566406 7.476563 L 44.390625 6.550781 C 44.851563 6.476563 45.3125 6.742188 45.480469 7.179688 L 47.59375 12.683594 C 47.894531 13.476563 48.523438 14.101563 49.316406 14.40625 L 54.820313 16.519531 C 55.257813 16.6875 55.523438 17.144531 55.449219 17.609375 L 54.527344 23.433594 C 54.394531 24.269531 54.625 25.128906 55.15625 25.789063 L 58.867188 30.371094 C 59.164063 30.734375 59.164063 31.265625 58.867188 31.628906 L 55.15625 36.210938 C 54.625 36.871094 54.394531 37.730469 54.527344 38.566406 L 55.449219 44.390625 C 55.523438 44.855469 55.257813 45.3125 54.820313 45.480469 L 49.316406 47.59375 C 48.523438 47.894531 47.898438 48.523438 47.59375 49.316406 L 45.480469 54.820313 C 45.3125 55.257813 44.855469 55.523438 44.390625 55.449219 L 38.566406 54.527344 C 37.730469 54.394531 36.871094 54.625 36.210938 55.15625 L 31.628906 58.867188 C 31.265625 59.164063 30.734375 59.164063 30.371094 58.867188 L 25.789063 55.15625 C 25.253906 54.722656 24.582031 54.488281 23.898438 54.488281 C 23.742188 54.488281 23.585938 54.5 23.433594 54.527344 L 17.609375 55.449219 C 17.144531 55.523438 16.6875 55.257813 16.519531 54.820313 L 14.40625 49.316406 C 14.105469 48.523438 13.476563 47.898438 12.683594 47.59375 L 7.179688 45.480469 C 6.742188 45.308594 6.476563 44.851563 6.550781 44.390625 L 7.476563 38.566406 C 7.609375 37.726563 7.375 36.867188 6.84375 36.207031 L 3.132813 31.628906 C 2.835938 31.265625 2.835938 30.734375 3.132813 30.371094 L 6.84375 25.785156 C 7.378906 25.128906 7.609375 24.269531 7.476563 23.429688 L 6.550781 17.609375 C 6.476563 17.144531 6.742188 16.6875 7.179688 16.519531 L 12.683594 14.40625 C 13.476563 14.105469 14.101563 13.476563 14.40625 12.683594 L 16.519531 7.179688 C 16.6875 6.742188 17.148438 6.480469 17.609375 6.550781 L 23.433594 7.472656 C 24.269531 7.605469 25.128906 7.375 25.789063 6.84375 L 30.371094 3.132813 C 30.554688 2.984375 30.777344 2.910156 31 2.910156 Z M 31 10 C 30.449219 10 30 10.449219 30 11 L 30 13 C 30 13.550781 30.449219 14 31 14 C 31.550781 14 32 13.550781 32 13 L 32 11 C 32 10.449219 31.550781 10 31 10 Z M 25.957031 10.6875 C 25.832031 10.671875 25.695313 10.679688 25.5625 10.714844 C 25.027344 10.859375 24.710938 11.40625 24.855469 11.9375 L 25.375 13.871094 C 25.496094 14.316406 25.898438 14.613281 26.339844 14.613281 C 26.425781 14.613281 26.511719 14.601563 26.597656 14.578125 C 27.132813 14.433594 27.449219 13.886719 27.308594 13.355469 L 26.785156 11.421875 C 26.679688 11.023438 26.34375 10.742188 25.957031 10.6875 Z M 36.039063 10.6875 C 35.652344 10.742188 35.316406 11.023438 35.210938 11.421875 L 34.691406 13.355469 C 34.550781 13.886719 34.867188 14.433594 35.402344 14.578125 C 35.488281 14.601563 35.574219 14.613281 35.65625 14.613281 C 36.097656 14.613281 36.503906 14.316406 36.625 13.871094 L 37.140625 11.9375 C 37.285156 11.40625 36.96875 10.859375 36.4375 10.714844 C 36.300781 10.679688 36.167969 10.671875 36.039063 10.6875 Z M 20.875 12.6875 C 20.746094 12.703125 20.621094 12.746094 20.5 12.8125 C 20.019531 13.089844 19.859375 13.703125 20.136719 14.179688 L 21.136719 15.910156 C 21.320313 16.234375 21.65625 16.410156 22 16.410156 C 22.171875 16.410156 22.34375 16.367188 22.5 16.277344 C 22.980469 16 23.140625 15.390625 22.863281 14.910156 L 21.863281 13.179688 C 21.65625 12.820313 21.261719 12.640625 20.875 12.6875 Z M 41.125 12.6875 C 40.738281 12.640625 40.34375 12.820313 40.136719 13.179688 L 39.136719 14.910156 C 38.859375 15.386719 39.023438 16 39.5 16.277344 C 39.65625 16.367188 39.828125 16.410156 40 16.410156 C 40.34375 16.410156 40.679688 16.230469 40.863281 15.910156 L 41.863281 14.179688 C 42.140625 13.703125 41.980469 13.089844 41.5 12.8125 C 41.378906 12.742188 41.25 12.703125 41.125 12.6875 Z M 16.859375 15.859375 C 16.601563 15.859375 16.347656 15.953125 16.152344 16.152344 C 15.757813 16.542969 15.757813 17.171875 16.152344 17.5625 L 17.5625 18.980469 C 17.757813 19.171875 18.015625 19.269531 18.269531 19.269531 C 18.527344 19.269531 18.785156 19.171875 18.980469 18.980469 C 19.371094 18.585938 19.371094 17.957031 18.980469 17.5625 L 17.5625 16.152344 C 17.367188 15.953125 17.113281 15.859375 16.859375 15.859375 Z M 45.140625 15.859375 C 44.886719 15.859375 44.632813 15.953125 44.4375 16.152344 L 43.019531 17.5625 C 42.628906 17.957031 42.628906 18.585938 43.019531 18.980469 C 43.214844 19.171875 43.472656 19.269531 43.730469 19.269531 C 43.984375 19.269531 44.242188 19.171875 44.4375 18.980469 L 45.847656 17.5625 C 46.242188 17.171875 46.242188 16.542969 45.847656 16.152344 C 45.652344 15.953125 45.398438 15.859375 45.140625 15.859375 Z M 36.082031 19 C 35.695313 18.972656 35.304688 19.171875 35.113281 19.535156 L 24.113281 41.535156 C 23.859375 42.027344 24.046875 42.628906 24.535156 42.886719 C 24.683594 42.964844 24.84375 43 25 43 C 25.359375 43 25.707031 42.804688 25.886719 42.464844 L 36.886719 20.464844 C 37.140625 19.972656 36.953125 19.371094 36.464844 19.113281 C 36.339844 19.050781 36.210938 19.011719 36.082031 19 Z M 13.800781 20.007813 C 13.414063 19.960938 13.019531 20.140625 12.8125 20.5 C 12.539063 20.976563 12.699219 21.589844 13.179688 21.863281 L 14.910156 22.863281 C 15.070313 22.957031 15.238281 23 15.410156 23 C 15.757813 23 16.09375 22.820313 16.277344 22.5 C 16.554688 22.023438 16.390625 21.410156 15.910156 21.136719 L 14.179688 20.136719 C 14.058594 20.066406 13.933594 20.023438 13.800781 20.007813 Z M 48.195313 20.007813 C 48.066406 20.023438 47.941406 20.066406 47.820313 20.136719 L 46.089844 21.136719 C 45.609375 21.410156 45.445313 22.023438 45.722656 22.5 C 45.910156 22.820313 46.242188 23 46.589844 23 C 46.757813 23 46.929688 22.957031 47.089844 22.863281 L 48.820313 21.863281 C 49.300781 21.589844 49.460938 20.976563 49.1875 20.5 C 48.980469 20.140625 48.582031 19.960938 48.195313 20.007813 Z M 24 21 C 22.347656 21 21 22.347656 21 24 L 21 27 C 21 28.652344 22.347656 30 24 30 L 25 30 C 26.652344 30 28 28.652344 28 27 L 28 24 C 28 22.347656 26.652344 21 25 21 Z M 24 23 L 25 23 C 25.550781 23 26 23.449219 26 24 L 26 27 C 26 27.550781 25.550781 28 25 28 L 24 28 C 23.449219 28 23 27.550781 23 27 L 23 24 C 23 23.449219 23.449219 23 24 23 Z M 50.453125 24.828125 C 50.328125 24.8125 50.191406 24.820313 50.058594 24.859375 L 48.125 25.375 C 47.59375 25.519531 47.277344 26.066406 47.421875 26.597656 C 47.542969 27.046875 47.945313 27.34375 48.386719 27.34375 C 48.472656 27.34375 48.558594 27.332031 48.644531 27.308594 L 50.578125 26.789063 C 51.109375 26.644531 51.425781 26.097656 51.28125 25.5625 C 51.175781 25.164063 50.839844 24.882813 50.453125 24.828125 Z M 11.542969 24.832031 C 11.15625 24.886719 10.820313 25.164063 10.714844 25.5625 C 10.574219 26.097656 10.890625 26.644531 11.421875 26.789063 L 13.355469 27.308594 C 13.441406 27.332031 13.527344 27.34375 13.613281 27.34375 C 14.054688 27.34375 14.460938 27.046875 14.578125 26.601563 C 14.722656 26.070313 14.40625 25.519531 13.871094 25.375 L 11.9375 24.859375 C 11.804688 24.820313 11.671875 24.816406 11.542969 24.832031 Z M 11 30 C 10.449219 30 10 30.449219 10 31 C 10 31.550781 10.449219 32 11 32 L 13 32 C 13.550781 32 14 31.550781 14 31 C 14 30.449219 13.550781 30 13 30 Z M 49 30 C 48.449219 30 48 30.449219 48 31 C 48 31.550781 48.449219 32 49 32 L 51 32 C 51.550781 32 52 31.550781 52 31 C 52 30.449219 51.550781 30 51 30 Z M 36 32 C 34.347656 32 33 33.347656 33 35 L 33 38 C 33 39.652344 34.347656 41 36 41 L 37 41 C 38.652344 41 40 39.652344 40 38 L 40 35 C 40 33.347656 38.652344 32 37 32 Z M 36 34 L 37 34 C 37.550781 34 38 34.449219 38 35 L 38 38 C 38 38.550781 37.550781 39 37 39 L 36 39 C 35.449219 39 35 38.550781 35 38 L 35 35 C 35 34.449219 35.449219 34 36 34 Z M 13.75 34.667969 C 13.621094 34.648438 13.488281 34.65625 13.355469 34.691406 L 11.421875 35.210938 C 10.886719 35.355469 10.570313 35.902344 10.714844 36.4375 C 10.835938 36.882813 11.238281 37.175781 11.679688 37.175781 C 11.765625 37.175781 11.851563 37.167969 11.9375 37.140625 L 13.871094 36.625 C 14.40625 36.480469 14.722656 35.933594 14.578125 35.402344 C 14.472656 35 14.136719 34.71875 13.75 34.667969 Z M 48.25 34.667969 C 47.863281 34.71875 47.527344 35 47.421875 35.398438 C 47.277344 35.929688 47.59375 36.480469 48.125 36.625 L 50.058594 37.140625 C 50.144531 37.164063 50.234375 37.175781 50.316406 37.175781 C 50.757813 37.175781 51.164063 36.882813 51.28125 36.4375 C 51.425781 35.902344 51.109375 35.355469 50.578125 35.210938 L 48.644531 34.691406 C 48.511719 34.65625 48.375 34.648438 48.25 34.667969 Z M 15.285156 39.003906 C 15.160156 39.023438 15.03125 39.066406 14.910156 39.136719 L 13.179688 40.136719 C 12.699219 40.410156 12.539063 41.023438 12.8125 41.5 C 13 41.820313 13.335938 42 13.683594 42 C 13.851563 42 14.023438 41.957031 14.179688 41.863281 L 15.910156 40.863281 C 16.390625 40.589844 16.554688 39.976563 16.277344 39.5 C 16.070313 39.140625 15.671875 38.957031 15.285156 39.003906 Z M 46.710938 39.007813 C 46.324219 38.960938 45.929688 39.140625 45.722656 39.5 C 45.445313 39.976563 45.609375 40.589844 46.089844 40.863281 L 47.820313 41.863281 C 47.976563 41.957031 48.148438 42 48.316406 42 C 48.664063 42 49 41.820313 49.1875 41.5 C 49.460938 41.023438 49.300781 40.410156 48.820313 40.136719 L 47.089844 39.136719 C 46.96875 39.066406 46.839844 39.023438 46.710938 39.007813 Z M 18.269531 42.730469 C 18.015625 42.730469 17.761719 42.824219 17.5625 43.019531 L 16.152344 44.4375 C 15.757813 44.828125 15.757813 45.457031 16.152344 45.847656 C 16.34375 46.042969 16.601563 46.140625 16.859375 46.140625 C 17.113281 46.140625 17.371094 46.042969 17.5625 45.847656 L 18.980469 44.4375 C 19.371094 44.042969 19.371094 43.414063 18.980469 43.019531 C 18.78125 42.824219 18.527344 42.730469 18.269531 42.730469 Z M 43.730469 42.730469 C 43.472656 42.730469 43.21875 42.824219 43.019531 43.019531 C 42.628906 43.414063 42.628906 44.042969 43.019531 44.4375 L 44.4375 45.847656 C 44.628906 46.042969 44.886719 46.140625 45.140625 46.140625 C 45.398438 46.140625 45.65625 46.042969 45.847656 45.847656 C 46.242188 45.457031 46.242188 44.828125 45.847656 44.4375 L 44.4375 43.019531 C 44.238281 42.824219 43.984375 42.730469 43.730469 42.730469 Z M 39.875 45.59375 C 39.746094 45.609375 39.621094 45.652344 39.5 45.722656 C 39.019531 46 38.859375 46.609375 39.136719 47.089844 L 40.136719 48.820313 C 40.320313 49.140625 40.65625 49.320313 41 49.320313 C 41.171875 49.320313 41.34375 49.277344 41.5 49.1875 C 41.980469 48.910156 42.140625 48.296875 41.863281 47.820313 L 40.863281 46.089844 C 40.65625 45.730469 40.261719 45.546875 39.875 45.59375 Z M 22.125 45.59375 C 21.734375 45.546875 21.339844 45.730469 21.136719 46.089844 L 20.136719 47.820313 C 19.859375 48.296875 20.023438 48.910156 20.5 49.1875 C 20.65625 49.277344 20.828125 49.320313 21 49.320313 C 21.34375 49.320313 21.679688 49.140625 21.863281 48.820313 L 22.863281 47.089844 C 23.140625 46.609375 22.980469 46 22.5 45.722656 C 22.378906 45.652344 22.253906 45.613281 22.125 45.59375 Z M 35.796875 47.394531 C 35.667969 47.375 35.535156 47.386719 35.402344 47.421875 C 34.867188 47.566406 34.550781 48.113281 34.691406 48.644531 L 35.210938 50.578125 C 35.332031 51.023438 35.734375 51.320313 36.175781 51.320313 C 36.261719 51.320313 36.347656 51.308594 36.4375 51.285156 C 36.96875 51.140625 37.285156 50.59375 37.140625 50.0625 L 36.625 48.128906 C 36.519531 47.730469 36.183594 47.449219 35.796875 47.394531 Z M 26.203125 47.394531 C 25.816406 47.449219 25.480469 47.730469 25.375 48.128906 L 24.859375 50.0625 C 24.714844 50.59375 25.03125 51.140625 25.5625 51.285156 C 25.652344 51.308594 25.738281 51.320313 25.824219 51.320313 C 26.261719 51.320313 26.667969 51.023438 26.785156 50.578125 L 27.308594 48.644531 C 27.449219 48.113281 27.132813 47.566406 26.597656 47.421875 C 26.464844 47.386719 26.332031 47.378906 26.203125 47.394531 Z M 31 48 C 30.449219 48 30 48.449219 30 49 L 30 51 C 30 51.550781 30.449219 52 31 52 C 31.550781 52 32 51.550781 32 51 L 32 49 C 32 48.449219 31.550781 48 31 48 Z "></path>
</g>
</svg>