<svg xmlns="http://www.w3.org/2000/svg" xmlns:xlink="http://www.w3.org/1999/xlink" viewBox="0 0 50 50" version="1.1" fill="#fff">
<g id="surface1">
<path style=" " d="M 25 2 C 20.390625 2 16.703125 4.566406 16.09375 8 L 3 8 C 1.347656 8 0 9.347656 0 11 L 0 28 C 0 28.550781 0.449219 29 1 29 L 20 29 C 20 27.347656 21.347656 26 23 26 L 27 26 C 28.652344 26 30 27.347656 30 29 L 49 29 C 49.550781 29 50 28.550781 50 28 L 50 11 C 50 9.347656 48.652344 8 47 8 L 33.90625 8 C 33.296875 4.566406 29.609375 2 25 2 Z M 25 4 C 28.449219 4 31.25 5.6875 31.875 8 L 18.125 8 C 18.75 5.6875 21.550781 4 25 4 Z M 23 28 C 22.449219 28 22 28.449219 22 29 L 22 31 C 22 31.550781 22.449219 32 23 32 L 27 32 C 27.550781 32 28 31.550781 28 31 L 28 29 C 28 28.449219 27.550781 28 27 28 Z M 0 30.8125 L 0 45 C 0 46.652344 1.347656 48 3 48 L 47 48 C 48.652344 48 50 46.652344 50 45 L 50 30.8125 C 49.6875 30.925781 49.351563 31 49 31 L 30 31 C 30 32.652344 28.652344 34 27 34 L 23 34 C 21.347656 34 20 32.652344 20 31 L 1 31 C 0.648438 31 0.3125 30.925781 0 30.8125 Z "></path>
</g>
</svg>