<svg xmlns="http://www.w3.org/2000/svg" xmlns:xlink="http://www.w3.org/1999/xlink" viewBox="0 0 50 50" version="1.1" fill="#fff">
<g id="surface1">
<path style=" " d="M 25 0 C 21.515625 0 19.382813 0.769531 18.8125 1 C 18.769531 1 18.730469 1 18.6875 1 L 11.8125 2.8125 C 11.710938 2.8125 8.199219 4.011719 6.5 6.8125 C 4.101563 10.8125 0.1875 17.1875 0.1875 17.1875 C -0.113281 17.6875 0.101563 18.292969 0.5 18.59375 L 7.09375 22.6875 C 7.292969 22.789063 7.394531 22.8125 7.59375 22.8125 C 7.894531 22.8125 8.304688 22.613281 8.40625 22.3125 L 10.90625 18.3125 L 10.90625 48 C 10.90625 48.601563 11.304688 49 11.90625 49 L 37.90625 49 C 38.507813 49 38.90625 48.601563 38.90625 48 L 38.90625 47.8125 L 38.8125 24.40625 L 38.8125 18.40625 L 41.40625 22.40625 C 41.605469 22.707031 41.886719 22.90625 42.1875 22.90625 C 42.386719 22.90625 42.585938 22.914063 42.6875 22.8125 L 49.3125 18.6875 C 50.011719 18.289063 50.113281 17.710938 49.8125 17.3125 C 49.8125 17.3125 45.898438 10.90625 43.5 6.90625 C 41.800781 4.105469 38.386719 3.007813 38.1875 2.90625 L 31.3125 1 C 31.269531 1 31.230469 1 31.1875 1 C 30.617188 0.769531 28.484375 0 25 0 Z M 25 2 C 27.292969 2 28.78125 2.328125 29.65625 2.59375 C 29.132813 3.574219 27.867188 5 25 5 C 22.105469 5 20.828125 3.542969 20.3125 2.59375 C 21.179688 2.328125 22.683594 2 25 2 Z "></path>
</g>
</svg>
